<svg width="142" height="40" viewBox="0 0 142 40" fill="none" xmlns="http://www.w3.org/2000/svg">
<path d="M142 1C134.111 1 134.111 9.56036 126.222 9.56036C118.333 9.56036 118.333 1 110.445 1C102.556 1 102.556 9.56036 94.6667 9.56036C86.7778 9.56036 86.7777 1 78.8889 1C71 1 71 9.56036 63.1113 9.56036C55.2225 9.56036 55.2225 1 47.3331 1C39.4444 1 39.4444 9.56036 31.5556 9.56036C23.6669 9.56036 23.6669 1 15.7782 1C7.88874 1 7.88874 9.56036 -2.14577e-06 9.56036" stroke="url(#paint0_linear_2001_261)" stroke-width="2.01896" stroke-miterlimit="10"/>
<path d="M142 15.4353C134.111 15.4353 134.111 23.9955 126.222 23.9955C118.333 23.9955 118.333 15.4353 110.445 15.4353C102.556 15.4353 102.556 23.9955 94.6667 23.9955C86.7778 23.9955 86.7777 15.4353 78.8889 15.4353C71 15.4353 71 23.9955 63.1113 23.9955C55.2225 23.9955 55.2225 15.4353 47.3331 15.4353C39.4444 15.4353 39.4444 23.9955 31.5556 23.9955C23.6669 23.9955 23.6669 15.4353 15.7782 15.4353C7.88874 15.4353 7.88874 23.9955 -2.14577e-06 23.9955" stroke="url(#paint1_linear_2001_261)" stroke-width="2.01896" stroke-miterlimit="10"/>
<path d="M142 29.7024C134.111 29.7024 134.111 38.2626 126.222 38.2626C118.333 38.2626 118.333 29.7024 110.445 29.7024C102.556 29.7024 102.556 38.2626 94.6667 38.2626C86.7778 38.2626 86.7777 29.7024 78.8889 29.7024C71 29.7024 71 38.2626 63.1113 38.2626C55.2225 38.2626 55.2225 29.7024 47.3331 29.7024C39.4444 29.7024 39.4444 38.2626 31.5556 38.2626C23.6669 38.2626 23.6669 29.7024 15.7782 29.7024C7.88874 29.7024 7.88874 38.2626 -2.14577e-06 38.2626" stroke="url(#paint2_linear_2001_261)" stroke-width="2.01896" stroke-miterlimit="10"/>
<defs>
<linearGradient id="paint0_linear_2001_261" x1="115.069" y1="5.28018" x2="106.908" y2="25.8455" gradientUnits="userSpaceOnUse">
<stop stop-color="#0179B4"/>
<stop offset="0.876334" stop-color="#88D8FF"/>
</linearGradient>
<linearGradient id="paint1_linear_2001_261" x1="115.069" y1="19.7154" x2="106.908" y2="40.2806" gradientUnits="userSpaceOnUse">
<stop stop-color="#0179B4"/>
<stop offset="0.876334" stop-color="#88D8FF"/>
</linearGradient>
<linearGradient id="paint2_linear_2001_261" x1="115.069" y1="33.9825" x2="106.908" y2="54.5477" gradientUnits="userSpaceOnUse">
<stop stop-color="#0179B4"/>
<stop offset="0.876334" stop-color="#88D8FF"/>
</linearGradient>
</defs>
</svg>
