<svg width="44" height="44" viewBox="0 0 44 44" fill="none" xmlns="http://www.w3.org/2000/svg">
<rect width="44" height="44" rx="8" fill="#EFF9FF"/>
<path d="M35 14.5714C35 13.5863 34.6087 12.6415 33.9121 11.945C33.2155 11.2484 32.2708 10.8571 31.2857 10.8571H30.3571V9.95461C30.3571 9.45492 29.9729 9.02603 29.4733 9.00108C29.3477 8.99503 29.2222 9.01453 29.1044 9.05841C28.9867 9.10228 28.879 9.16962 28.788 9.25633C28.697 9.34304 28.6246 9.44733 28.575 9.56287C28.5255 9.67841 28.5 9.80279 28.5 9.92849V10.8571H15.5V9.95461C15.5 9.45492 15.1158 9.02603 14.6161 9.00108C14.4906 8.99503 14.3651 9.01453 14.2473 9.05841C14.1295 9.10228 14.0219 9.16962 13.9309 9.25633C13.8399 9.34304 13.7674 9.44733 13.7179 9.56287C13.6684 9.67841 13.6429 9.80279 13.6429 9.92849V10.8571H12.7143C11.7292 10.8571 10.7845 11.2484 10.0879 11.945C9.39133 12.6415 9 13.5863 9 14.5714V15.2678C9 15.3294 9.02446 15.3884 9.06799 15.4319C9.11153 15.4755 9.17057 15.4999 9.23214 15.4999H34.7679C34.8294 15.4999 34.8885 15.4755 34.932 15.4319C34.9755 15.3884 35 15.3294 35 15.2678V14.5714ZM9 31.2857C9 32.2708 9.39133 33.2155 10.0879 33.9121C10.7845 34.6087 11.7292 35 12.7143 35H31.2857C32.2708 35 33.2155 34.6087 33.9121 33.9121C34.6087 33.2155 35 32.2708 35 31.2857V17.5312C35 17.485 34.9817 17.4407 34.949 17.4081C34.9164 17.3754 34.8721 17.3571 34.8259 17.3571H9.17411C9.12793 17.3571 9.08365 17.3754 9.05099 17.4081C9.01834 17.4407 9 17.485 9 17.5312V31.2857ZM28.9643 19.2142C29.2398 19.2142 29.5091 19.2959 29.7381 19.449C29.9672 19.602 30.1457 19.8196 30.2511 20.0741C30.3565 20.3286 30.3841 20.6086 30.3304 20.8788C30.2766 21.149 30.144 21.3972 29.9492 21.592C29.7544 21.7868 29.5062 21.9194 29.236 21.9732C28.9658 22.0269 28.6858 21.9994 28.4313 21.8939C28.1768 21.7885 27.9592 21.61 27.8062 21.3809C27.6531 21.1519 27.5714 20.8826 27.5714 20.6071C27.5714 20.2377 27.7182 19.8834 27.9794 19.6222C28.2406 19.361 28.5949 19.2142 28.9643 19.2142ZM28.9643 23.8571C29.2398 23.8571 29.5091 23.9388 29.7381 24.0918C29.9672 24.2449 30.1457 24.4624 30.2511 24.7169C30.3565 24.9715 30.3841 25.2515 30.3304 25.5217C30.2766 25.7919 30.144 26.0401 29.9492 26.2349C29.7544 26.4297 29.5062 26.5623 29.236 26.6161C28.9658 26.6698 28.6858 26.6422 28.4313 26.5368C28.1768 26.4314 27.9592 26.2529 27.8062 26.0238C27.6531 25.7947 27.5714 25.5254 27.5714 25.25C27.5714 24.8806 27.7182 24.5263 27.9794 24.2651C28.2406 24.0039 28.5949 23.8571 28.9643 23.8571ZM24.3214 19.2142C24.5969 19.2142 24.8662 19.2959 25.0953 19.449C25.3243 19.602 25.5028 19.8196 25.6083 20.0741C25.7137 20.3286 25.7413 20.6086 25.6875 20.8788C25.6338 21.149 25.5011 21.3972 25.3063 21.592C25.1115 21.7868 24.8633 21.9194 24.5932 21.9732C24.323 22.0269 24.0429 21.9994 23.7884 21.8939C23.5339 21.7885 23.3164 21.61 23.1633 21.3809C23.0103 21.1519 22.9286 20.8826 22.9286 20.6071C22.9286 20.2377 23.0753 19.8834 23.3365 19.6222C23.5977 19.361 23.952 19.2142 24.3214 19.2142ZM24.3214 23.8571C24.5969 23.8571 24.8662 23.9388 25.0953 24.0918C25.3243 24.2449 25.5028 24.4624 25.6083 24.7169C25.7137 24.9715 25.7413 25.2515 25.6875 25.5217C25.6338 25.7919 25.5011 26.0401 25.3063 26.2349C25.1115 26.4297 24.8633 26.5623 24.5932 26.6161C24.323 26.6698 24.0429 26.6422 23.7884 26.5368C23.5339 26.4314 23.3164 26.2529 23.1633 26.0238C23.0103 25.7947 22.9286 25.5254 22.9286 25.25C22.9286 24.8806 23.0753 24.5263 23.3365 24.2651C23.5977 24.0039 23.952 23.8571 24.3214 23.8571ZM24.3214 28.5C24.5969 28.5 24.8662 28.5817 25.0953 28.7347C25.3243 28.8878 25.5028 29.1053 25.6083 29.3598C25.7137 29.6143 25.7413 29.8944 25.6875 30.1646C25.6338 30.4348 25.5011 30.6829 25.3063 30.8777C25.1115 31.0725 24.8633 31.2052 24.5932 31.2589C24.323 31.3127 24.0429 31.2851 23.7884 31.1797C23.5339 31.0743 23.3164 30.8957 23.1633 30.6667C23.0103 30.4376 22.9286 30.1683 22.9286 29.8928C22.9286 29.5234 23.0753 29.1692 23.3365 28.9079C23.5977 28.6467 23.952 28.5 24.3214 28.5ZM19.6786 23.8571C19.9541 23.8571 20.2233 23.9388 20.4524 24.0918C20.6815 24.2449 20.86 24.4624 20.9654 24.7169C21.0708 24.9715 21.0984 25.2515 21.0447 25.5217C20.9909 25.7919 20.8583 26.0401 20.6635 26.2349C20.4687 26.4297 20.2205 26.5623 19.9503 26.6161C19.6801 26.6698 19.4001 26.6422 19.1455 26.5368C18.891 26.4314 18.6735 26.2529 18.5205 26.0238C18.3674 25.7947 18.2857 25.5254 18.2857 25.25C18.2857 24.8806 18.4325 24.5263 18.6937 24.2651C18.9549 24.0039 19.3092 23.8571 19.6786 23.8571ZM19.6786 28.5C19.9541 28.5 20.2233 28.5817 20.4524 28.7347C20.6815 28.8878 20.86 29.1053 20.9654 29.3598C21.0708 29.6143 21.0984 29.8944 21.0447 30.1646C20.9909 30.4348 20.8583 30.6829 20.6635 30.8777C20.4687 31.0725 20.2205 31.2052 19.9503 31.2589C19.6801 31.3127 19.4001 31.2851 19.1455 31.1797C18.891 31.0743 18.6735 30.8957 18.5205 30.6667C18.3674 30.4376 18.2857 30.1683 18.2857 29.8928C18.2857 29.5234 18.4325 29.1692 18.6937 28.9079C18.9549 28.6467 19.3092 28.5 19.6786 28.5ZM15.0357 23.8571C15.3112 23.8571 15.5805 23.9388 15.8095 24.0918C16.0386 24.2449 16.2171 24.4624 16.3225 24.7169C16.428 24.9715 16.4556 25.2515 16.4018 25.5217C16.3481 25.7919 16.2154 26.0401 16.0206 26.2349C15.8258 26.4297 15.5776 26.5623 15.3074 26.6161C15.0373 26.6698 14.7572 26.6422 14.5027 26.5368C14.2482 26.4314 14.0306 26.2529 13.8776 26.0238C13.7245 25.7947 13.6429 25.5254 13.6429 25.25C13.6429 24.8806 13.7896 24.5263 14.0508 24.2651C14.312 24.0039 14.6663 23.8571 15.0357 23.8571ZM15.0357 28.5C15.3112 28.5 15.5805 28.5817 15.8095 28.7347C16.0386 28.8878 16.2171 29.1053 16.3225 29.3598C16.428 29.6143 16.4556 29.8944 16.4018 30.1646C16.3481 30.4348 16.2154 30.6829 16.0206 30.8777C15.8258 31.0725 15.5776 31.2052 15.3074 31.2589C15.0373 31.3127 14.7572 31.2851 14.5027 31.1797C14.2482 31.0743 14.0306 30.8957 13.8776 30.6667C13.7245 30.4376 13.6429 30.1683 13.6429 29.8928C13.6429 29.5234 13.7896 29.1692 14.0508 28.9079C14.312 28.6467 14.6663 28.5 15.0357 28.5Z" fill="#0069AB"/>
</svg>
