<svg width="44" height="44" viewBox="0 0 44 44" fill="none" xmlns="http://www.w3.org/2000/svg">
<rect width="44" height="44" rx="8" fill="#EFF9FF"/>
<path d="M33.2 10H10.8C9.26 10 8.014 11.2107 8.014 12.6905L8 33.6494C8 34.8466 9.512 35.452 10.394 34.6045L13.6 31.5239H33.2C34.74 31.5239 36 30.3132 36 28.8334V12.6905C36 11.2107 34.74 10 33.2 10ZM26.81 22.6542L25.2 22.1206V23.7977C25.2 24.5375 24.57 25.1429 23.8 25.1429H17.4C16.63 25.1429 16 24.5375 16 23.7977V17.7262C16 16.9863 16.63 16.381 17.4 16.381H23.8C24.57 16.381 25.2 16.9863 25.2 17.7262V19.4032L26.81 18.8697C27.244 18.4392 28 18.7486 28 19.3405V22.1699C28 22.7753 27.244 23.0847 26.81 22.6542Z" fill="#0069AB"/>
</svg>
