<svg width="568" height="525" viewBox="0 0 568 525" fill="none" xmlns="http://www.w3.org/2000/svg">
<g filter="url(#filter0_d_21_34)">
<path d="M341.5 1.13233H225.5C213.1 -0.867675 201.333 20.299 197 31.1323V154.132C150.333 153.966 52.9 154.032 36.5 155.632C20.1 157.232 8.66667 177.632 5 187.632V335.132C5 350.332 29.3333 363.132 41.5 367.632H197C196.833 398.632 196.8 465.632 198 485.632C199.2 505.632 218.5 513.966 228 515.632H340.5C358.9 515.632 367.833 495.966 370 486.132V366.632C413.667 367.132 506 368.132 526 368.132C546 368.132 558.667 343.799 562.5 331.632C563.167 291.299 564.1 205.832 562.5 186.632C560.9 167.432 540.167 156.966 530 154.132H370V29.6323C370 12.4323 351 3.46566 341.5 1.13233Z" fill="#03354E" stroke="#03354E"/>
<path d="M176.698 257.632H4.40688V282.632H162.532C164.856 282.632 166.871 284.229 167.414 286.488C170.009 297.272 174.377 314.239 176.5 318.132C179.5 323.632 182 326.632 186 326.632H199C202.2 326.632 206.667 313.632 208.5 307.132L229 220.132C239.5 270.299 260.5 372.232 260.5 378.632C260.5 384.278 263.354 391.896 265.285 396.13C265.734 397.114 266.523 397.894 267.491 398.378L269.944 399.604C270.639 399.952 271.404 400.132 272.18 400.132H277.5C280.3 400.132 282 396.799 282.5 395.132L284.5 387.132L322.5 228.632L339.911 309.718C339.97 309.994 340.053 310.264 340.157 310.526L344.423 321.19C344.799 322.13 345.447 322.938 346.308 323.467C348.553 324.847 351.864 326.632 353.5 326.632H361.5C365.319 326.632 369.442 320.555 371.258 317.104C371.423 316.79 371.544 316.459 371.633 316.116L380.035 283.389C380.603 281.178 382.596 279.632 384.878 279.632H564V255C501.5 255 374.2 255.5 371 255.5C368.018 255.5 364.516 260.709 362.838 263.442C362.611 263.812 362.443 264.213 362.331 264.632C361.071 269.325 354.386 269.22 353.293 264.485C346.213 233.818 337 193.26 337 190.632C337 187.584 334.883 181.874 333.673 179.034C333.559 178.765 333.422 178.509 333.247 178.274C331.7 176.191 327.782 172.632 322.5 172.632C316.9 172.632 312.833 179.632 311.5 183.132L274 338.132L241.673 164.065C241.559 163.449 241.333 162.86 240.966 162.352C239.512 160.34 235.245 155.132 230 155.132C224.8 155.132 220.833 162.132 219.5 165.632L190.5 282.632C189.714 270.685 188.784 264.106 179.129 258.287C178.398 257.846 177.552 257.632 176.698 257.632Z" fill="white"/>
<path d="M350.5 102.632H370.072V154.132C418.572 154.132 518.3 153.632 531.5 153.632C547 153.632 557.5 171 563.5 182.132L564 219.5V238V247V256L562 257.132H372C370.167 258.132 366 260.132 364 262.132C362 264.132 358.833 276.299 357.5 282.132L344.5 227.132C342.667 216.632 337.241 194.759 337.241 194.759C337.241 194.759 336.5 186.5 335 182.5L331 175.5C329 174.5 325.2 173 322 173C318.8 173 320 172.132 318.5 172.132V134.632C318.5 119.032 339.833 106.799 350.5 102.632Z" fill="#0A93C9"/>
<path d="M136.845 96.5H95.5C92.8374 96.5 90.1931 99.2351 88.457 101.671C87.4091 103.141 87 104.944 87 106.749V109C87 111.451 90.3238 114.253 93.153 116.105C94.6542 117.088 96.4374 117.5 98.2316 117.5H140C141.625 117.5 143.953 115.361 145.804 113.255C147.318 111.533 148 109.268 148 106.975V105C148 102.957 145.16 100.257 142.589 98.2993C140.949 97.0503 138.907 96.5 136.845 96.5Z" fill="#0B8CC3"/>
<path d="M443.845 97H402.5C399.837 97 397.193 99.7351 395.457 102.171C394.409 103.641 394 105.444 394 107.249V109.5C394 111.951 397.324 114.753 400.153 116.605C401.654 117.588 403.437 118 405.232 118H447C448.625 118 450.953 115.861 452.804 113.755C454.318 112.033 455 109.768 455 107.475V105.5C455 103.457 452.16 100.757 449.589 98.7993C447.949 97.5503 445.907 97 443.845 97Z" fill="#0B8CC3"/>
<path d="M443.845 395H402.5C399.837 395 397.193 397.735 395.457 400.171C394.409 401.641 394 403.444 394 405.249V407.5C394 409.951 397.324 412.753 400.153 414.605C401.654 415.588 403.437 416 405.232 416H447C448.625 416 450.953 413.861 452.804 411.755C454.318 410.033 455 407.768 455 405.475V403.5C455 401.457 452.16 398.757 449.589 396.799C447.949 395.55 445.907 395 443.845 395Z" fill="#0B8CC3"/>
<path d="M136.845 395H95.5C92.8374 395 90.1931 397.735 88.457 400.171C87.4091 401.641 87 403.444 87 405.249V407.5C87 409.951 90.3238 412.753 93.153 414.605C94.6542 415.588 96.4374 416 98.2316 416H140C141.625 416 143.953 413.861 145.804 411.755C147.318 410.033 148 407.768 148 405.475V403.5C148 401.457 145.16 398.757 142.589 396.799C140.949 395.55 138.907 395 136.845 395Z" fill="#0B8CC3"/>
<path d="M87.1713 217.118H4.5V239H99.1235C103.904 239 107.092 229.84 108.088 225.26L130 153H107.092L87.1713 217.118Z" fill="white"/>
<path d="M4.5 188.5V217.5L87 217L106.5 154H55C53.6667 154.167 47.7 154.7 34.5 155.5C21.3 156.3 9 177.833 4.5 188.5Z" fill="#0A93C9" stroke="#0A93C9"/>
</g>
<defs>
<filter id="filter0_d_21_34" x="0" y="0.499878" width="568" height="523.632" filterUnits="userSpaceOnUse" color-interpolation-filters="sRGB">
<feFlood flood-opacity="0" result="BackgroundImageFix"/>
<feColorMatrix in="SourceAlpha" type="matrix" values="0 0 0 0 0 0 0 0 0 0 0 0 0 0 0 0 0 0 127 0" result="hardAlpha"/>
<feOffset dy="4"/>
<feGaussianBlur stdDeviation="2"/>
<feComposite in2="hardAlpha" operator="out"/>
<feColorMatrix type="matrix" values="0 0 0 0 0 0 0 0 0 0 0 0 0 0 0 0 0 0 0.25 0"/>
<feBlend mode="normal" in2="BackgroundImageFix" result="effect1_dropShadow_21_34"/>
<feBlend mode="normal" in="SourceGraphic" in2="effect1_dropShadow_21_34" result="shape"/>
</filter>
</defs>
</svg>
