<svg width="44" height="44" viewBox="0 0 44 44" fill="none" xmlns="http://www.w3.org/2000/svg">
<rect width="44" height="44" rx="8" fill="#EFF9FF"/>
<path d="M28.45 33.9068L29.83 32.5477L24.49 27.2886L23.11 28.6477C22.37 29.3765 22 30.253 22 31.2773C22 32.3015 22.37 33.178 23.11 33.9068C23.85 34.6356 24.74 35 25.78 35C26.82 35 27.71 34.6356 28.45 33.9068ZM31.51 30.8932L32.89 29.5341C33.63 28.8053 34 27.9288 34 26.9045C34 25.8803 33.63 25.0038 32.89 24.275C32.15 23.5462 31.26 23.1818 30.22 23.1818C29.18 23.1818 28.29 23.5462 27.55 24.275L26.17 25.6341L31.51 30.8932ZM14.8 18.4545H26.8V16.0909H14.8V18.4545ZM20.8 12.8409C21.06 12.8409 21.2752 12.757 21.4456 12.5892C21.616 12.4214 21.7008 12.2098 21.7 11.9545C21.6992 11.6993 21.614 11.4877 21.4444 11.3199C21.2748 11.1521 21.06 11.0682 20.8 11.0682C20.54 11.0682 20.3252 11.1521 20.1556 11.3199C19.986 11.4877 19.9008 11.6993 19.9 11.9545C19.8992 12.2098 19.9844 12.4218 20.1556 12.5904C20.3268 12.759 20.5416 12.8425 20.8 12.8409ZM19.75 32.6364H12.4C11.74 32.6364 11.1752 32.4051 10.7056 31.9426C10.236 31.4802 10.0008 30.9235 10 30.2727V13.7273C10 13.0773 10.2352 12.521 10.7056 12.0585C11.176 11.5961 11.7408 11.3644 12.4 11.3636H17.44C17.7 10.6545 18.1352 10.0833 18.7456 9.65C19.356 9.21667 20.0408 9 20.8 9C21.5592 9 22.2444 9.21667 22.8556 9.65C23.4668 10.0833 23.9016 10.6545 24.16 11.3636H29.2C29.86 11.3636 30.4252 11.5953 30.8956 12.0585C31.366 12.5218 31.6008 13.0781 31.6 13.7273V20.9659C30.76 20.7689 29.9252 20.754 29.0956 20.921C28.266 21.088 27.5008 21.3988 26.8 21.8535V20.8182H14.8V23.1818H25.27L22.87 25.5455H14.8V27.9091H20.65C20.19 28.5985 19.8748 29.3521 19.7044 30.1699C19.534 30.9877 19.5496 31.8099 19.7512 32.6364" fill="#0069AB"/>
</svg>
