<svg width="352" height="100" viewBox="0 0 352 100" fill="none" xmlns="http://www.w3.org/2000/svg">
<g filter="url(#filter0_d_76_444)">
<rect x="36" y="20" width="296" height="44" rx="10" fill="white" shape-rendering="crispEdges"/>
<rect x="60" y="28" width="28" height="28" rx="4" fill="#EFF9FF"/>
<path d="M74 47.3995L78.3649 49.8549C79.1642 50.3049 80.1424 49.6397 79.932 48.7984L78.7751 44.1811L82.6351 41.0703C83.3398 40.5029 82.9611 39.4268 82.0356 39.3583L76.9555 38.9573L74.9676 34.5943C74.61 33.8019 73.39 33.8019 73.0324 34.5943L71.0445 38.9475L65.9644 39.3486C65.0389 39.417 64.6602 40.4931 65.3649 41.0605L69.2249 44.1713L68.068 48.7886C67.8576 49.6299 68.8358 50.2951 69.6351 49.8451L74 47.3995Z" fill="#0069AB"/>
<path d="M101.12 48V36.48H108.56V38.288H103.048V41.128H107.6V42.936H103.048V46.192H108.56V48H101.12ZM112.895 48.24C112.271 48.24 111.743 48.1227 111.311 47.888C110.879 47.648 110.551 47.3307 110.327 46.936C110.109 46.5413 109.999 46.1067 109.999 45.632C109.999 45.216 110.069 44.8427 110.207 44.512C110.346 44.176 110.559 43.888 110.847 43.648C111.135 43.4027 111.509 43.2027 111.967 43.048C112.314 42.936 112.719 42.8347 113.183 42.744C113.653 42.6533 114.159 42.5707 114.703 42.496C115.253 42.416 115.826 42.3307 116.423 42.24L115.735 42.632C115.741 42.0347 115.607 41.5947 115.335 41.312C115.063 41.0293 114.605 40.888 113.959 40.888C113.57 40.888 113.194 40.9787 112.831 41.16C112.469 41.3413 112.215 41.6533 112.071 42.096L110.311 41.544C110.525 40.8133 110.93 40.2267 111.527 39.784C112.13 39.3413 112.941 39.12 113.959 39.12C114.727 39.12 115.402 39.2453 115.983 39.496C116.57 39.7467 117.005 40.1573 117.287 40.728C117.442 41.032 117.535 41.344 117.567 41.664C117.599 41.9787 117.615 42.3227 117.615 42.696V48H115.927V46.128L116.207 46.432C115.818 47.056 115.362 47.5147 114.839 47.808C114.322 48.096 113.674 48.24 112.895 48.24ZM113.279 46.704C113.717 46.704 114.09 46.6267 114.399 46.472C114.709 46.3173 114.954 46.128 115.135 45.904C115.322 45.68 115.447 45.4693 115.511 45.272C115.613 45.0267 115.669 44.7467 115.679 44.432C115.695 44.112 115.703 43.8533 115.703 43.656L116.295 43.832C115.714 43.9227 115.215 44.0027 114.799 44.072C114.383 44.1413 114.026 44.208 113.727 44.272C113.429 44.3307 113.165 44.3973 112.935 44.472C112.711 44.552 112.522 44.6453 112.367 44.752C112.213 44.8587 112.093 44.9813 112.007 45.12C111.927 45.2587 111.887 45.4213 111.887 45.608C111.887 45.8213 111.941 46.0107 112.047 46.176C112.154 46.336 112.309 46.464 112.511 46.56C112.719 46.656 112.975 46.704 113.279 46.704ZM123.034 48.24C121.967 48.24 121.101 48 120.434 47.52C119.767 47.04 119.362 46.3653 119.218 45.496L121.186 45.192C121.287 45.6187 121.511 45.9547 121.858 46.2C122.205 46.4453 122.642 46.568 123.17 46.568C123.634 46.568 123.991 46.4773 124.242 46.296C124.498 46.1093 124.626 45.856 124.626 45.536C124.626 45.3387 124.578 45.1813 124.482 45.064C124.391 44.9413 124.189 44.824 123.874 44.712C123.559 44.6 123.077 44.4587 122.426 44.288C121.701 44.096 121.125 43.8907 120.698 43.672C120.271 43.448 119.965 43.184 119.778 42.88C119.591 42.576 119.498 42.208 119.498 41.776C119.498 41.2373 119.639 40.768 119.922 40.368C120.205 39.968 120.599 39.6613 121.106 39.448C121.613 39.2293 122.21 39.12 122.898 39.12C123.57 39.12 124.165 39.224 124.682 39.432C125.205 39.64 125.626 39.936 125.946 40.32C126.266 40.704 126.463 41.1547 126.538 41.672L124.57 42.024C124.522 41.656 124.354 41.3653 124.066 41.152C123.783 40.9387 123.405 40.8187 122.93 40.792C122.477 40.7653 122.111 40.8347 121.834 41C121.557 41.16 121.418 41.3867 121.418 41.68C121.418 41.8453 121.474 41.9867 121.586 42.104C121.698 42.2213 121.922 42.3387 122.258 42.456C122.599 42.5733 123.106 42.7173 123.778 42.888C124.466 43.064 125.015 43.2667 125.426 43.496C125.842 43.72 126.141 43.9893 126.322 44.304C126.509 44.6187 126.602 45 126.602 45.448C126.602 46.3173 126.285 47 125.65 47.496C125.021 47.992 124.149 48.24 123.034 48.24ZM129.178 51.84L130.842 47.272L130.874 48.616L127.106 39.36H129.114L131.786 46.208H131.274L133.874 39.36H135.802L130.986 51.84H129.178ZM139.398 48L143.03 36.48H145.854L149.486 48H147.502L144.206 37.664H144.638L141.382 48H139.398ZM141.422 45.504V43.704H147.47V45.504H141.422ZM155.085 48.24C154.242 48.24 153.535 48.04 152.965 47.64C152.394 47.24 151.965 46.696 151.677 46.008C151.389 45.3147 151.245 44.5387 151.245 43.68C151.245 42.8107 151.389 42.032 151.677 41.344C151.965 40.656 152.386 40.1147 152.941 39.72C153.501 39.32 154.191 39.12 155.013 39.12C155.829 39.12 156.535 39.32 157.133 39.72C157.735 40.1147 158.202 40.656 158.533 41.344C158.863 42.0267 159.029 42.8053 159.029 43.68C159.029 44.544 158.866 45.32 158.541 46.008C158.215 46.696 157.757 47.24 157.165 47.64C156.573 48.04 155.879 48.24 155.085 48.24ZM150.917 51.84V39.36H152.621V45.424H152.861V51.84H150.917ZM154.789 46.512C155.29 46.512 155.703 46.3867 156.029 46.136C156.354 45.8853 156.594 45.5467 156.749 45.12C156.909 44.688 156.989 44.208 156.989 43.68C156.989 43.1573 156.909 42.6827 156.749 42.256C156.589 41.824 156.341 41.4827 156.005 41.232C155.669 40.976 155.242 40.848 154.725 40.848C154.234 40.848 153.834 40.968 153.525 41.208C153.215 41.4427 152.986 41.7733 152.837 42.2C152.693 42.6213 152.621 43.1147 152.621 43.68C152.621 44.24 152.693 44.7333 152.837 45.16C152.986 45.5867 153.218 45.92 153.533 46.16C153.853 46.3947 154.271 46.512 154.789 46.512ZM164.944 48.24C164.101 48.24 163.395 48.04 162.824 47.64C162.253 47.24 161.824 46.696 161.536 46.008C161.248 45.3147 161.104 44.5387 161.104 43.68C161.104 42.8107 161.248 42.032 161.536 41.344C161.824 40.656 162.245 40.1147 162.8 39.72C163.36 39.32 164.051 39.12 164.872 39.12C165.688 39.12 166.395 39.32 166.992 39.72C167.595 40.1147 168.061 40.656 168.392 41.344C168.723 42.0267 168.888 42.8053 168.888 43.68C168.888 44.544 168.725 45.32 168.4 46.008C168.075 46.696 167.616 47.24 167.024 47.64C166.432 48.04 165.739 48.24 164.944 48.24ZM160.776 51.84V39.36H162.48V45.424H162.72V51.84H160.776ZM164.648 46.512C165.149 46.512 165.563 46.3867 165.888 46.136C166.213 45.8853 166.453 45.5467 166.608 45.12C166.768 44.688 166.848 44.208 166.848 43.68C166.848 43.1573 166.768 42.6827 166.608 42.256C166.448 41.824 166.2 41.4827 165.864 41.232C165.528 40.976 165.101 40.848 164.584 40.848C164.093 40.848 163.693 40.968 163.384 41.208C163.075 41.4427 162.845 41.7733 162.696 42.2C162.552 42.6213 162.48 43.1147 162.48 43.68C162.48 44.24 162.552 44.7333 162.696 45.16C162.845 45.5867 163.077 45.92 163.392 46.16C163.712 46.3947 164.131 46.512 164.648 46.512ZM174.467 48.24C173.603 48.24 172.849 48.0453 172.203 47.656C171.558 47.2667 171.057 46.7307 170.699 46.048C170.347 45.36 170.171 44.5707 170.171 43.68C170.171 42.7733 170.353 41.9787 170.715 41.296C171.078 40.6133 171.582 40.08 172.227 39.696C172.873 39.312 173.619 39.12 174.467 39.12C175.337 39.12 176.094 39.3147 176.739 39.704C177.385 40.0933 177.886 40.632 178.243 41.32C178.601 42.0027 178.779 42.7893 178.779 43.68C178.779 44.576 178.598 45.368 178.235 46.056C177.878 46.7387 177.377 47.2747 176.731 47.664C176.086 48.048 175.331 48.24 174.467 48.24ZM174.467 46.432C175.235 46.432 175.806 46.176 176.179 45.664C176.553 45.152 176.739 44.4907 176.739 43.68C176.739 42.8427 176.55 42.176 176.171 41.68C175.793 41.1787 175.225 40.928 174.467 40.928C173.95 40.928 173.523 41.0453 173.187 41.28C172.857 41.5093 172.611 41.832 172.451 42.248C172.291 42.6587 172.211 43.136 172.211 43.68C172.211 44.5173 172.401 45.1867 172.779 45.688C173.163 46.184 173.726 46.432 174.467 46.432ZM180.702 38.048V36.28H182.63V38.048H180.702ZM180.702 48V39.36H182.63V48H180.702ZM191.002 48V43.84C191.002 43.568 190.984 43.2667 190.946 42.936C190.909 42.6053 190.821 42.288 190.682 41.984C190.549 41.6747 190.346 41.4213 190.074 41.224C189.808 41.0267 189.445 40.928 188.986 40.928C188.741 40.928 188.498 40.968 188.258 41.048C188.018 41.128 187.8 41.2667 187.602 41.464C187.41 41.656 187.256 41.9227 187.138 42.264C187.021 42.6 186.962 43.032 186.962 43.56L185.818 43.072C185.818 42.336 185.96 41.6693 186.242 41.072C186.53 40.4747 186.952 40 187.506 39.648C188.061 39.2907 188.744 39.112 189.554 39.112C190.194 39.112 190.722 39.2187 191.138 39.432C191.554 39.6453 191.885 39.9173 192.13 40.248C192.376 40.5787 192.557 40.9307 192.674 41.304C192.792 41.6773 192.866 42.032 192.898 42.368C192.936 42.6987 192.954 42.968 192.954 43.176V48H191.002ZM185.01 48V39.36H186.73V42.04H186.962V48H185.01ZM200.106 48C199.535 48.1067 198.975 48.152 198.426 48.136C197.882 48.1253 197.394 48.0267 196.962 47.84C196.53 47.648 196.202 47.3467 195.978 46.936C195.781 46.5627 195.677 46.1813 195.666 45.792C195.655 45.4027 195.65 44.9627 195.65 44.472V36.96H197.57V44.36C197.57 44.7067 197.573 45.0107 197.578 45.272C197.589 45.5333 197.645 45.7467 197.746 45.912C197.938 46.232 198.245 46.4107 198.666 46.448C199.087 46.4853 199.567 46.464 200.106 46.384V48ZM194.082 40.872V39.36H200.106V40.872H194.082ZM212.34 48V42.752C212.34 42.16 212.193 41.6987 211.9 41.368C211.606 41.032 211.209 40.864 210.708 40.864C210.398 40.864 210.121 40.936 209.876 41.08C209.63 41.2187 209.436 41.4267 209.292 41.704C209.148 41.976 209.076 42.3013 209.076 42.68L208.22 42.176C208.214 41.5787 208.348 41.0533 208.62 40.6C208.897 40.1413 209.27 39.784 209.74 39.528C210.209 39.272 210.732 39.144 211.308 39.144C212.262 39.144 212.993 39.432 213.5 40.008C214.012 40.5787 214.268 41.3307 214.268 42.264V48H212.34ZM201.948 48V39.36H203.652V42.04H203.892V48H201.948ZM207.156 48V42.776C207.156 42.1733 207.009 41.704 206.716 41.368C206.422 41.032 206.022 40.864 205.516 40.864C205.025 40.864 204.63 41.032 204.332 41.368C204.038 41.704 203.892 42.1413 203.892 42.68L203.028 42.104C203.028 41.544 203.166 41.04 203.444 40.592C203.721 40.144 204.094 39.792 204.564 39.536C205.038 39.2747 205.569 39.144 206.156 39.144C206.801 39.144 207.34 39.2827 207.772 39.56C208.209 39.832 208.534 40.2053 208.748 40.68C208.966 41.1493 209.076 41.68 209.076 42.272V48H207.156ZM220.142 48.24C219.267 48.24 218.499 48.0507 217.838 47.672C217.176 47.2933 216.659 46.768 216.286 46.096C215.918 45.424 215.734 44.6507 215.734 43.776C215.734 42.832 215.915 42.0133 216.278 41.32C216.64 40.6213 217.144 40.08 217.79 39.696C218.435 39.312 219.182 39.12 220.03 39.12C220.926 39.12 221.686 39.3307 222.31 39.752C222.939 40.168 223.406 40.7573 223.71 41.52C224.014 42.2827 224.128 43.1813 224.054 44.216H222.142V43.512C222.136 42.5733 221.971 41.888 221.646 41.456C221.32 41.024 220.808 40.808 220.11 40.808C219.32 40.808 218.734 41.0533 218.35 41.544C217.966 42.0293 217.774 42.7413 217.774 43.68C217.774 44.5547 217.966 45.232 218.35 45.712C218.734 46.192 219.294 46.432 220.03 46.432C220.504 46.432 220.912 46.328 221.254 46.12C221.6 45.9067 221.867 45.6 222.054 45.2L223.958 45.776C223.627 46.5547 223.115 47.16 222.422 47.592C221.734 48.024 220.974 48.24 220.142 48.24ZM217.166 44.216V42.76H223.11V44.216H217.166ZM231.58 48V43.84C231.58 43.568 231.562 43.2667 231.524 42.936C231.487 42.6053 231.399 42.288 231.26 41.984C231.127 41.6747 230.924 41.4213 230.652 41.224C230.386 41.0267 230.023 40.928 229.564 40.928C229.319 40.928 229.076 40.968 228.836 41.048C228.596 41.128 228.378 41.2667 228.18 41.464C227.988 41.656 227.834 41.9227 227.716 42.264C227.599 42.6 227.54 43.032 227.54 43.56L226.396 43.072C226.396 42.336 226.538 41.6693 226.82 41.072C227.108 40.4747 227.53 40 228.084 39.648C228.639 39.2907 229.322 39.112 230.132 39.112C230.772 39.112 231.3 39.2187 231.716 39.432C232.132 39.6453 232.463 39.9173 232.708 40.248C232.954 40.5787 233.135 40.9307 233.252 41.304C233.37 41.6773 233.444 42.032 233.476 42.368C233.514 42.6987 233.532 42.968 233.532 43.176V48H231.58ZM225.588 48V39.36H227.308V42.04H227.54V48H225.588ZM240.684 48C240.113 48.1067 239.553 48.152 239.004 48.136C238.46 48.1253 237.972 48.0267 237.54 47.84C237.108 47.648 236.78 47.3467 236.556 46.936C236.359 46.5627 236.255 46.1813 236.244 45.792C236.233 45.4027 236.228 44.9627 236.228 44.472V36.96H238.148V44.36C238.148 44.7067 238.151 45.0107 238.156 45.272C238.167 45.5333 238.223 45.7467 238.324 45.912C238.516 46.232 238.823 46.4107 239.244 46.448C239.665 46.4853 240.145 46.464 240.684 46.384V48ZM234.66 40.872V39.36H240.684V40.872H234.66ZM245.745 48V36.48H250.313C251.092 36.48 251.729 36.6373 252.225 36.952C252.726 37.2613 253.097 37.6587 253.337 38.144C253.582 38.6293 253.705 39.1307 253.705 39.648C253.705 40.2827 253.553 40.8213 253.249 41.264C252.95 41.7067 252.542 42.0053 252.025 42.16V41.76C252.75 41.9253 253.3 42.2693 253.673 42.792C254.052 43.3147 254.241 43.9093 254.241 44.576C254.241 45.2587 254.11 45.856 253.849 46.368C253.588 46.88 253.198 47.28 252.681 47.568C252.169 47.856 251.534 48 250.777 48H245.745ZM247.697 46.184H250.537C250.873 46.184 251.174 46.1173 251.441 45.984C251.708 45.8453 251.916 45.6533 252.065 45.408C252.22 45.1573 252.297 44.8613 252.297 44.52C252.297 44.2107 252.23 43.9333 252.097 43.688C251.964 43.4427 251.769 43.248 251.513 43.104C251.257 42.9547 250.95 42.88 250.593 42.88H247.697V46.184ZM247.697 41.08H250.289C250.566 41.08 250.814 41.0267 251.033 40.92C251.252 40.8133 251.425 40.656 251.553 40.448C251.681 40.24 251.745 39.984 251.745 39.68C251.745 39.28 251.617 38.9467 251.361 38.68C251.105 38.4133 250.748 38.28 250.289 38.28H247.697V41.08ZM259.655 48.24C258.791 48.24 258.036 48.0453 257.391 47.656C256.745 47.2667 256.244 46.7307 255.887 46.048C255.535 45.36 255.359 44.5707 255.359 43.68C255.359 42.7733 255.54 41.9787 255.903 41.296C256.265 40.6133 256.769 40.08 257.415 39.696C258.06 39.312 258.807 39.12 259.655 39.12C260.524 39.12 261.281 39.3147 261.927 39.704C262.572 40.0933 263.073 40.632 263.431 41.32C263.788 42.0027 263.967 42.7893 263.967 43.68C263.967 44.576 263.785 45.368 263.423 46.056C263.065 46.7387 262.564 47.2747 261.919 47.664C261.273 48.048 260.519 48.24 259.655 48.24ZM259.655 46.432C260.423 46.432 260.993 46.176 261.367 45.664C261.74 45.152 261.927 44.4907 261.927 43.68C261.927 42.8427 261.737 42.176 261.359 41.68C260.98 41.1787 260.412 40.928 259.655 40.928C259.137 40.928 258.711 41.0453 258.375 41.28C258.044 41.5093 257.799 41.832 257.639 42.248C257.479 42.6587 257.399 43.136 257.399 43.68C257.399 44.5173 257.588 45.1867 257.967 45.688C258.351 46.184 258.913 46.432 259.655 46.432ZM269.545 48.24C268.681 48.24 267.927 48.0453 267.281 47.656C266.636 47.2667 266.135 46.7307 265.777 46.048C265.425 45.36 265.249 44.5707 265.249 43.68C265.249 42.7733 265.431 41.9787 265.793 41.296C266.156 40.6133 266.66 40.08 267.305 39.696C267.951 39.312 268.697 39.12 269.545 39.12C270.415 39.12 271.172 39.3147 271.817 39.704C272.463 40.0933 272.964 40.632 273.321 41.32C273.679 42.0027 273.857 42.7893 273.857 43.68C273.857 44.576 273.676 45.368 273.313 46.056C272.956 46.7387 272.455 47.2747 271.809 47.664C271.164 48.048 270.409 48.24 269.545 48.24ZM269.545 46.432C270.313 46.432 270.884 46.176 271.257 45.664C271.631 45.152 271.817 44.4907 271.817 43.68C271.817 42.8427 271.628 42.176 271.249 41.68C270.871 41.1787 270.303 40.928 269.545 40.928C269.028 40.928 268.601 41.0453 268.265 41.28C267.935 41.5093 267.689 41.832 267.529 42.248C267.369 42.6587 267.289 43.136 267.289 43.68C267.289 44.5173 267.479 45.1867 267.857 45.688C268.241 46.184 268.804 46.432 269.545 46.432ZM275.604 48L275.62 36.48H277.572V43.52L280.732 39.36H283.14L279.788 43.68L283.428 48H280.876L277.572 43.84V48H275.604ZM284.389 38.048V36.28H286.317V38.048H284.389ZM284.389 48V39.36H286.317V48H284.389ZM294.69 48V43.84C294.69 43.568 294.671 43.2667 294.634 42.936C294.596 42.6053 294.508 42.288 294.37 41.984C294.236 41.6747 294.034 41.4213 293.762 41.224C293.495 41.0267 293.132 40.928 292.674 40.928C292.428 40.928 292.186 40.968 291.946 41.048C291.706 41.128 291.487 41.2667 291.29 41.464C291.098 41.656 290.943 41.9227 290.826 42.264C290.708 42.6 290.65 43.032 290.65 43.56L289.506 43.072C289.506 42.336 289.647 41.6693 289.93 41.072C290.218 40.4747 290.639 40 291.194 39.648C291.748 39.2907 292.431 39.112 293.242 39.112C293.882 39.112 294.41 39.2187 294.826 39.432C295.242 39.6453 295.572 39.9173 295.818 40.248C296.063 40.5787 296.244 40.9307 296.362 41.304C296.479 41.6773 296.554 42.032 296.586 42.368C296.623 42.6987 296.642 42.968 296.642 43.176V48H294.69ZM288.698 48V39.36H290.418V42.04H290.65V48H288.698ZM302.361 52.08C301.881 52.08 301.42 52.0053 300.977 51.856C300.54 51.7067 300.145 51.4907 299.793 51.208C299.441 50.9307 299.153 50.5947 298.929 50.2L300.705 49.32C300.871 49.6347 301.103 49.8667 301.401 50.016C301.705 50.1707 302.028 50.248 302.369 50.248C302.769 50.248 303.127 50.176 303.441 50.032C303.756 49.8933 303.999 49.6853 304.169 49.408C304.345 49.136 304.428 48.7947 304.417 48.384V45.928H304.657V39.36H306.345V48.416C306.345 48.6347 306.335 48.8427 306.313 49.04C306.297 49.2427 306.268 49.44 306.225 49.632C306.097 50.192 305.852 50.6507 305.489 51.008C305.127 51.3707 304.676 51.64 304.137 51.816C303.604 51.992 303.012 52.08 302.361 52.08ZM302.193 48.24C301.399 48.24 300.705 48.04 300.113 47.64C299.521 47.24 299.063 46.696 298.737 46.008C298.412 45.32 298.249 44.544 298.249 43.68C298.249 42.8053 298.412 42.0267 298.737 41.344C299.068 40.656 299.535 40.1147 300.137 39.72C300.74 39.32 301.449 39.12 302.265 39.12C303.087 39.12 303.775 39.32 304.329 39.72C304.889 40.1147 305.313 40.656 305.601 41.344C305.889 42.032 306.033 42.8107 306.033 43.68C306.033 44.5387 305.889 45.3147 305.601 46.008C305.313 46.696 304.884 47.24 304.313 47.64C303.743 48.04 303.036 48.24 302.193 48.24ZM302.489 46.512C303.007 46.512 303.423 46.3947 303.737 46.16C304.057 45.92 304.289 45.5867 304.433 45.16C304.583 44.7333 304.657 44.24 304.657 43.68C304.657 43.1147 304.583 42.6213 304.433 42.2C304.289 41.7733 304.063 41.4427 303.753 41.208C303.444 40.968 303.044 40.848 302.553 40.848C302.036 40.848 301.609 40.976 301.273 41.232C300.937 41.4827 300.689 41.824 300.529 42.256C300.369 42.6827 300.289 43.1573 300.289 43.68C300.289 44.208 300.367 44.688 300.521 45.12C300.681 45.5467 300.924 45.8853 301.249 46.136C301.575 46.3867 301.988 46.512 302.489 46.512Z" fill="#0069AB"/>
</g>
<defs>
<filter id="filter0_d_76_444" x="0" y="0" width="352" height="100" filterUnits="userSpaceOnUse" color-interpolation-filters="sRGB">
<feFlood flood-opacity="0" result="BackgroundImageFix"/>
<feColorMatrix in="SourceAlpha" type="matrix" values="0 0 0 0 0 0 0 0 0 0 0 0 0 0 0 0 0 0 127 0" result="hardAlpha"/>
<feOffset dx="-8" dy="8"/>
<feGaussianBlur stdDeviation="14"/>
<feComposite in2="hardAlpha" operator="out"/>
<feColorMatrix type="matrix" values="0 0 0 0 0 0 0 0 0 0 0 0 0 0 0 0 0 0 0.06 0"/>
<feBlend mode="normal" in2="BackgroundImageFix" result="effect1_dropShadow_76_444"/>
<feBlend mode="normal" in="SourceGraphic" in2="effect1_dropShadow_76_444" result="shape"/>
</filter>
</defs>
</svg>
