<svg width="44" height="44" viewBox="0 0 44 44" fill="none" xmlns="http://www.w3.org/2000/svg">
<rect width="44" height="44" rx="8" fill="#EFF9FF"/>
<path d="M23.6667 15.9062V11C23.6667 9.89543 22.7712 9 21.6667 9H13.5C12.8073 9 12 9.82461 12 10.5L12 33.5C12 34.1754 12.8073 35 13.5 35H30.5C31.1927 35 32 34.1754 32 33.5V19.125C32 18.0204 31.1046 17.125 30 17.125H24.9167C24.2292 17.125 23.6667 16.5766 23.6667 15.9062ZM27.2359 25.0205L27.825 25.5948C28.1505 25.9122 28.1505 26.4266 27.825 26.744L26.6349 27.9043C26.4336 28.1006 26.4336 28.4241 26.6349 28.6203L27.8333 29.7888C28.1589 30.1062 28.1589 30.6206 27.8333 30.938L27.2443 31.5123C26.9187 31.8297 26.3911 31.8297 26.0656 31.5123L24.8491 30.3258C24.6549 30.1364 24.3451 30.1364 24.1509 30.3257L22.9344 31.5118C22.6089 31.8292 22.0812 31.8292 21.7557 31.5118L21.1667 30.9375C20.8411 30.6201 20.8411 30.1057 21.1667 29.7883L22.3651 28.6199C22.5664 28.4236 22.5663 28.1001 22.3651 27.9038L19.7883 25.392C19.695 25.3009 19.5697 25.25 19.4393 25.25H19.1667C18.8905 25.25 18.6667 25.4739 18.6667 25.75V27.6875C18.6667 28.1364 18.2937 28.5 17.8333 28.5H17C16.5396 28.5 16.1667 28.1364 16.1667 27.6875V19.5625C16.1667 19.1136 16.5396 18.75 17 18.75H21.1667C23.0078 18.75 24.5 20.2049 24.5 22C24.5 22.9891 24.0412 23.8669 23.324 24.4599C23.0633 24.6754 23.0044 25.0806 23.2466 25.3167L24.151 26.1985C24.3451 26.3878 24.6549 26.3878 24.849 26.1985L26.0573 25.0205C26.3828 24.7031 26.9104 24.7031 27.2359 25.0205ZM21.1667 22.8125H19.4792C19.0304 22.8125 18.6667 22.4487 18.6667 22C18.6667 21.5513 19.0304 21.1875 19.4792 21.1875H21.1667C21.626 21.1875 22 21.5521 22 22C22 22.4479 21.626 22.8125 21.1667 22.8125ZM32 15.1902C32 15.3613 31.8613 15.5 31.6902 15.5H27.3333C26.2288 15.5 25.3333 14.6046 25.3333 13.5V9.31771C25.3333 9.14224 25.4756 9 25.651 9C25.9844 9 26.3021 9.12695 26.5365 9.35547L31.6354 14.332C31.8698 14.5605 32 14.8703 32 15.1902Z" fill="#0069AB"/>
</svg>
