<svg width="44" height="44" viewBox="0 0 44 44" fill="none" xmlns="http://www.w3.org/2000/svg">
<rect width="44" height="44" rx="8" fill="#EFF9FF"/>
<path d="M16.8237 9C16.1372 9 15.4789 9.26088 14.9935 9.72526C14.5081 10.1896 14.2354 10.8195 14.2354 11.4762C14.2354 12.1329 14.5081 12.7627 14.9935 13.2271C15.4789 13.6915 16.1372 13.9524 16.8237 13.9524H27.1769C27.5168 13.9524 27.8534 13.8883 28.1675 13.7639C28.4815 13.6395 28.7668 13.4571 29.0072 13.2271C29.2475 12.9972 29.4382 12.7242 29.5682 12.4238C29.6983 12.1234 29.7653 11.8014 29.7653 11.4762C29.7653 11.151 29.6983 10.829 29.5682 10.5286C29.4382 10.2282 29.2475 9.9552 29.0072 9.72526C28.7668 9.49533 28.4815 9.31293 28.1675 9.18849C27.8534 9.06405 27.5168 9 27.1769 9H16.8237Z" fill="#0069AB"/>
<path fill-rule="evenodd" clip-rule="evenodd" d="M16.4592 16.4286C16.0723 16.4287 15.6903 16.5118 15.3413 16.6718C14.9924 16.8317 14.6853 17.0647 14.4428 17.3531L11.5703 20.7723C11.201 21.2122 10.9998 21.7599 11 22.3241V32.5238C11 33.1805 11.2727 33.8104 11.7581 34.2747C12.2435 34.7391 12.9018 35 13.5883 35H30.4117C31.0982 35 31.7565 34.7391 32.2419 34.2747C32.7273 33.8104 33 33.1805 33 32.5238V22.3238C33.0002 21.7596 32.7989 21.2121 32.4296 20.7722L29.5577 17.353C29.3151 17.0643 29.0078 16.8314 28.6585 16.6714C28.3093 16.5114 27.9269 16.4285 27.5397 16.4286H16.4592ZM23.2945 21.9999C23.2945 21.3161 22.715 20.7618 22.0003 20.7618C21.2856 20.7618 20.7061 21.3161 20.7061 21.9999V24.4761H18.1178C17.4031 24.4761 16.8237 25.0304 16.8237 25.7142C16.8237 26.398 17.4031 26.9523 18.1178 26.9523H20.7061V29.4285C20.7061 30.1123 21.2856 30.6666 22.0003 30.6666C22.715 30.6666 23.2945 30.1123 23.2945 29.4285V26.9523H25.8828C26.5975 26.9523 27.1769 26.398 27.1769 25.7142C27.1769 25.0304 26.5975 24.4761 25.8828 24.4761H23.2945V21.9999Z" fill="#0069AB"/>
</svg>
