<svg width="344" height="170" viewBox="0 0 344 170" fill="none" xmlns="http://www.w3.org/2000/svg">
<g filter="url(#filter0_d_76_417)">
<rect x="19" y="50" width="300" height="88" rx="12" fill="url(#paint0_linear_76_417)" shape-rendering="crispEdges"/>
<rect x="20" y="51" width="298" height="86" rx="11" stroke="url(#paint1_linear_76_417)" stroke-width="2" shape-rendering="crispEdges"/>
<path d="M43.12 87V76.92H44.366V87H43.12ZM46.5363 80.07L46.6133 79.489C46.8093 79.503 46.9563 79.4657 47.0543 79.377C47.1523 79.2883 47.2153 79.167 47.2433 79.013C47.2713 78.859 47.276 78.6887 47.2573 78.502H46.5363V76.92H47.9083V78.712C47.9083 79.202 47.787 79.5707 47.5443 79.818C47.3063 80.0653 46.9703 80.1493 46.5363 80.07ZM51.901 87L49.157 79.44H50.417L52.538 85.411L54.652 79.44H55.919L53.175 87H51.901ZM60.1876 87.21C59.4456 87.21 58.797 87.0467 58.2416 86.72C57.691 86.3887 57.2616 85.929 56.9536 85.341C56.6456 84.7483 56.4916 84.0577 56.4916 83.269C56.4916 82.443 56.6433 81.729 56.9466 81.127C57.25 80.5203 57.6723 80.0537 58.2136 79.727C58.7596 79.3957 59.399 79.23 60.1316 79.23C60.8923 79.23 61.5386 79.405 62.0706 79.755C62.6073 80.105 63.0086 80.6043 63.2746 81.253C63.5453 81.9017 63.662 82.674 63.6246 83.57H62.3646V83.122C62.3506 82.1933 62.1616 81.5003 61.7976 81.043C61.4336 80.581 60.8923 80.35 60.1736 80.35C59.4036 80.35 58.818 80.5973 58.4166 81.092C58.0153 81.5867 57.8146 82.296 57.8146 83.22C57.8146 84.1113 58.0153 84.802 58.4166 85.292C58.818 85.782 59.3896 86.027 60.1316 86.027C60.631 86.027 61.065 85.9127 61.4336 85.684C61.8023 85.4553 62.0916 85.1263 62.3016 84.697L63.4986 85.11C63.2046 85.7773 62.7613 86.2953 62.1686 86.664C61.5806 87.028 60.9203 87.21 60.1876 87.21ZM57.3946 83.57V82.569H62.9806V83.57H57.3946ZM71.4579 87.21C70.7485 87.21 70.1512 87.035 69.6659 86.685C69.1805 86.3303 68.8119 85.852 68.5599 85.25C68.3125 84.6433 68.1889 83.9643 68.1889 83.213C68.1889 82.4523 68.3125 81.771 68.5599 81.169C68.8119 80.567 69.1805 80.0933 69.6659 79.748C70.1559 79.4027 70.7555 79.23 71.4649 79.23C72.1649 79.23 72.7669 79.405 73.2709 79.755C73.7795 80.1003 74.1692 80.574 74.4399 81.176C74.7105 81.778 74.8459 82.457 74.8459 83.213C74.8459 83.969 74.7105 84.648 74.4399 85.25C74.1692 85.852 73.7795 86.3303 73.2709 86.685C72.7669 87.035 72.1625 87.21 71.4579 87.21ZM67.9789 87V76.92H69.2319V81.435H69.0919V87H67.9789ZM71.3039 86.069C71.8032 86.069 72.2162 85.943 72.5429 85.691C72.8695 85.439 73.1145 85.0983 73.2779 84.669C73.4412 84.235 73.5229 83.7497 73.5229 83.213C73.5229 82.681 73.4412 82.2003 73.2779 81.771C73.1192 81.3417 72.8719 81.001 72.5359 80.749C72.2045 80.497 71.7822 80.371 71.2689 80.371C70.7789 80.371 70.3729 80.4923 70.0509 80.735C69.7289 80.973 69.4885 81.3067 69.3299 81.736C69.1712 82.1607 69.0919 82.653 69.0919 83.213C69.0919 83.7637 69.1689 84.256 69.3229 84.69C69.4815 85.1193 69.7242 85.4577 70.0509 85.705C70.3775 85.9477 70.7952 86.069 71.3039 86.069ZM79.6564 87.21C78.9144 87.21 78.2657 87.0467 77.7104 86.72C77.1597 86.3887 76.7304 85.929 76.4224 85.341C76.1144 84.7483 75.9604 84.0577 75.9604 83.269C75.9604 82.443 76.1121 81.729 76.4154 81.127C76.7187 80.5203 77.1411 80.0537 77.6824 79.727C78.2284 79.3957 78.8677 79.23 79.6004 79.23C80.3611 79.23 81.0074 79.405 81.5394 79.755C82.0761 80.105 82.4774 80.6043 82.7434 81.253C83.0141 81.9017 83.1307 82.674 83.0934 83.57H81.8334V83.122C81.8194 82.1933 81.6304 81.5003 81.2664 81.043C80.9024 80.581 80.3611 80.35 79.6424 80.35C78.8724 80.35 78.2867 80.5973 77.8854 81.092C77.4841 81.5867 77.2834 82.296 77.2834 83.22C77.2834 84.1113 77.4841 84.802 77.8854 85.292C78.2867 85.782 78.8584 86.027 79.6004 86.027C80.0997 86.027 80.5337 85.9127 80.9024 85.684C81.2711 85.4553 81.5604 85.1263 81.7704 84.697L82.9674 85.11C82.6734 85.7773 82.2301 86.2953 81.6374 86.664C81.0494 87.028 80.3891 87.21 79.6564 87.21ZM76.8634 83.57V82.569H82.4494V83.57H76.8634ZM87.9279 87.21C87.1859 87.21 86.5372 87.0467 85.9819 86.72C85.4312 86.3887 85.0019 85.929 84.6939 85.341C84.3859 84.7483 84.2319 84.0577 84.2319 83.269C84.2319 82.443 84.3835 81.729 84.6869 81.127C84.9902 80.5203 85.4125 80.0537 85.9539 79.727C86.4999 79.3957 87.1392 79.23 87.8719 79.23C88.6325 79.23 89.2789 79.405 89.8109 79.755C90.3475 80.105 90.7489 80.6043 91.0149 81.253C91.2855 81.9017 91.4022 82.674 91.3649 83.57H90.1049V83.122C90.0909 82.1933 89.9019 81.5003 89.5379 81.043C89.1739 80.581 88.6325 80.35 87.9139 80.35C87.1439 80.35 86.5582 80.5973 86.1569 81.092C85.7555 81.5867 85.5549 82.296 85.5549 83.22C85.5549 84.1113 85.7555 84.802 86.1569 85.292C86.5582 85.782 87.1299 86.027 87.8719 86.027C88.3712 86.027 88.8052 85.9127 89.1739 85.684C89.5425 85.4553 89.8319 85.1263 90.0419 84.697L91.2389 85.11C90.9449 85.7773 90.5015 86.2953 89.9089 86.664C89.3209 87.028 88.6605 87.21 87.9279 87.21ZM85.1349 83.57V82.569H90.7209V83.57H85.1349ZM98.1013 87V83.213C98.1013 82.8537 98.0686 82.5083 98.0033 82.177C97.9426 81.8457 97.8329 81.5493 97.6743 81.288C97.5203 81.022 97.3103 80.812 97.0443 80.658C96.7829 80.504 96.4516 80.427 96.0503 80.427C95.7376 80.427 95.4529 80.4807 95.1963 80.588C94.9443 80.6907 94.7273 80.8493 94.5453 81.064C94.3633 81.2787 94.2209 81.5493 94.1183 81.876C94.0203 82.198 93.9713 82.5783 93.9713 83.017L93.1523 82.765C93.1523 82.0323 93.2829 81.4047 93.5443 80.882C93.8103 80.3547 94.1813 79.951 94.6573 79.671C95.1379 79.3863 95.7026 79.244 96.3513 79.244C96.8413 79.244 97.2589 79.321 97.6043 79.475C97.9496 79.629 98.2366 79.8343 98.4653 80.091C98.6939 80.343 98.8736 80.6277 99.0043 80.945C99.1349 81.2577 99.2259 81.5773 99.2773 81.904C99.3333 82.226 99.3613 82.5317 99.3613 82.821V87H98.1013ZM92.7113 87V79.44H93.8313V81.463H93.9713V87H92.7113ZM106.854 87.196C106.369 87.196 105.951 87.119 105.601 86.965C105.256 86.811 104.969 86.6057 104.74 86.349C104.511 86.0923 104.332 85.8077 104.201 85.495C104.07 85.1823 103.977 84.8627 103.921 84.536C103.87 84.2093 103.844 83.9037 103.844 83.619V79.44H105.104V83.227C105.104 83.5817 105.137 83.9247 105.202 84.256C105.267 84.5873 105.377 84.886 105.531 85.152C105.69 85.418 105.9 85.628 106.161 85.782C106.427 85.936 106.758 86.013 107.155 86.013C107.468 86.013 107.752 85.9593 108.009 85.852C108.266 85.7447 108.485 85.586 108.667 85.376C108.849 85.1613 108.989 84.8907 109.087 84.564C109.185 84.2373 109.234 83.857 109.234 83.423L110.053 83.675C110.053 84.403 109.92 85.0307 109.654 85.558C109.393 86.0853 109.022 86.4913 108.541 86.776C108.065 87.056 107.503 87.196 106.854 87.196ZM109.374 87V84.977H109.234V79.44H110.487V87H109.374ZM115.303 87.203C114.402 87.203 113.662 87.007 113.084 86.615C112.51 86.2183 112.157 85.6653 112.027 84.956L113.301 84.753C113.403 85.1637 113.639 85.4903 114.008 85.733C114.376 85.971 114.834 86.09 115.38 86.09C115.898 86.09 116.304 85.9827 116.598 85.768C116.892 85.5533 117.039 85.2617 117.039 84.893C117.039 84.6783 116.99 84.5057 116.892 84.375C116.794 84.2397 116.591 84.1137 116.283 83.997C115.979 83.8803 115.52 83.7403 114.904 83.577C114.236 83.3997 113.711 83.2153 113.329 83.024C112.946 82.8327 112.673 82.611 112.51 82.359C112.346 82.107 112.265 81.8013 112.265 81.442C112.265 80.9987 112.386 80.6113 112.629 80.28C112.871 79.944 113.21 79.685 113.644 79.503C114.082 79.321 114.591 79.23 115.17 79.23C115.744 79.23 116.257 79.321 116.71 79.503C117.162 79.685 117.526 79.944 117.802 80.28C118.082 80.6113 118.247 80.9987 118.299 81.442L117.025 81.673C116.964 81.267 116.768 80.9473 116.437 80.714C116.11 80.4807 115.688 80.357 115.17 80.343C114.68 80.3243 114.281 80.4107 113.973 80.602C113.669 80.7933 113.518 81.0523 113.518 81.379C113.518 81.561 113.574 81.7173 113.686 81.848C113.802 81.9787 114.015 82.1023 114.323 82.219C114.635 82.3357 115.088 82.4687 115.681 82.618C116.348 82.786 116.873 82.9703 117.256 83.171C117.643 83.367 117.918 83.6003 118.082 83.871C118.245 84.137 118.327 84.466 118.327 84.858C118.327 85.586 118.058 86.16 117.522 86.58C116.985 86.9953 116.245 87.203 115.303 87.203ZM120.011 78.103V76.815H121.257V78.103H120.011ZM120.011 87V79.44H121.257V87H120.011ZM128.74 87V83.213C128.74 82.8537 128.707 82.5083 128.642 82.177C128.581 81.8457 128.472 81.5493 128.313 81.288C128.159 81.022 127.949 80.812 127.683 80.658C127.422 80.504 127.09 80.427 126.689 80.427C126.376 80.427 126.092 80.4807 125.835 80.588C125.583 80.6907 125.366 80.8493 125.184 81.064C125.002 81.2787 124.86 81.5493 124.757 81.876C124.659 82.198 124.61 82.5783 124.61 83.017L123.791 82.765C123.791 82.0323 123.922 81.4047 124.183 80.882C124.449 80.3547 124.82 79.951 125.296 79.671C125.777 79.3863 126.341 79.244 126.99 79.244C127.48 79.244 127.898 79.321 128.243 79.475C128.588 79.629 128.875 79.8343 129.104 80.091C129.333 80.343 129.512 80.6277 129.643 80.945C129.774 81.2577 129.865 81.5773 129.916 81.904C129.972 82.226 130 82.5317 130 82.821V87H128.74ZM123.35 87V79.44H124.47V81.463H124.61V87H123.35ZM134.879 90.57C134.482 90.57 134.095 90.5093 133.717 90.388C133.339 90.2667 132.991 90.0823 132.674 89.835C132.361 89.5923 132.1 89.2843 131.89 88.911L133.031 88.309C133.218 88.6777 133.481 88.946 133.822 89.114C134.167 89.282 134.522 89.366 134.886 89.366C135.367 89.366 135.766 89.2773 136.083 89.1C136.4 88.9273 136.634 88.6683 136.783 88.323C136.937 87.9777 137.012 87.5483 137.007 87.035V84.97H137.154V79.44H138.26V87.049C138.26 87.2543 138.253 87.4527 138.239 87.644C138.23 87.8353 138.206 88.0243 138.169 88.211C138.071 88.7477 137.877 89.1887 137.588 89.534C137.299 89.884 136.925 90.143 136.468 90.311C136.011 90.4837 135.481 90.57 134.879 90.57ZM134.788 87.21C134.083 87.21 133.479 87.035 132.975 86.685C132.471 86.3303 132.081 85.852 131.806 85.25C131.535 84.648 131.4 83.969 131.4 83.213C131.4 82.457 131.535 81.778 131.806 81.176C132.081 80.574 132.471 80.1003 132.975 79.755C133.479 79.405 134.081 79.23 134.781 79.23C135.495 79.23 136.095 79.4027 136.58 79.748C137.065 80.0933 137.432 80.567 137.679 81.169C137.931 81.771 138.057 82.4523 138.057 83.213C138.057 83.9643 137.931 84.6433 137.679 85.25C137.432 85.852 137.065 86.3303 136.58 86.685C136.095 87.035 135.497 87.21 134.788 87.21ZM134.942 86.069C135.451 86.069 135.868 85.9477 136.195 85.705C136.522 85.4577 136.762 85.1193 136.916 84.69C137.075 84.256 137.154 83.7637 137.154 83.213C137.154 82.653 137.075 82.1607 136.916 81.736C136.762 81.3067 136.524 80.973 136.202 80.735C135.88 80.4923 135.472 80.371 134.977 80.371C134.464 80.371 134.039 80.497 133.703 80.749C133.372 81.001 133.124 81.3417 132.961 81.771C132.802 82.2003 132.723 82.681 132.723 83.213C132.723 83.7497 132.805 84.235 132.968 84.669C133.131 85.0983 133.376 85.439 133.703 85.691C134.034 85.943 134.447 86.069 134.942 86.069ZM147.238 87C146.79 87.0887 146.347 87.1237 145.908 87.105C145.474 87.091 145.087 87.0047 144.746 86.846C144.405 86.6827 144.146 86.4307 143.969 86.09C143.82 85.7913 143.738 85.4903 143.724 85.187C143.715 84.879 143.71 84.5313 143.71 84.144V77.34H144.956V84.088C144.956 84.396 144.958 84.6597 144.963 84.879C144.972 85.0983 145.021 85.2873 145.11 85.446C145.278 85.7447 145.544 85.9197 145.908 85.971C146.277 86.0223 146.72 86.0083 147.238 85.929V87ZM142.177 80.469V79.44H147.238V80.469H142.177ZM154.156 87V83.213C154.156 82.8537 154.123 82.5083 154.058 82.177C153.997 81.8457 153.888 81.5493 153.729 81.288C153.575 81.022 153.365 80.812 153.099 80.658C152.838 80.504 152.506 80.427 152.105 80.427C151.792 80.427 151.508 80.4807 151.251 80.588C150.999 80.6907 150.782 80.8493 150.6 81.064C150.418 81.2787 150.276 81.5493 150.173 81.876C150.075 82.198 150.026 82.5783 150.026 83.017L149.207 82.765C149.207 82.0323 149.338 81.4047 149.599 80.882C149.865 80.3547 150.236 79.951 150.712 79.671C151.193 79.3863 151.757 79.244 152.406 79.244C152.896 79.244 153.314 79.321 153.659 79.475C154.004 79.629 154.291 79.8343 154.52 80.091C154.749 80.343 154.928 80.6277 155.059 80.945C155.19 81.2577 155.281 81.5773 155.332 81.904C155.388 82.226 155.416 82.5317 155.416 82.821V87H154.156ZM148.766 87V76.92H149.886V82.485H150.026V87H148.766ZM160.512 87.21C159.77 87.21 159.121 87.0467 158.566 86.72C158.015 86.3887 157.586 85.929 157.278 85.341C156.97 84.7483 156.816 84.0577 156.816 83.269C156.816 82.443 156.968 81.729 157.271 81.127C157.574 80.5203 157.997 80.0537 158.538 79.727C159.084 79.3957 159.723 79.23 160.456 79.23C161.217 79.23 161.863 79.405 162.395 79.755C162.932 80.105 163.333 80.6043 163.599 81.253C163.87 81.9017 163.986 82.674 163.949 83.57H162.689V83.122C162.675 82.1933 162.486 81.5003 162.122 81.043C161.758 80.581 161.217 80.35 160.498 80.35C159.728 80.35 159.142 80.5973 158.741 81.092C158.34 81.5867 158.139 82.296 158.139 83.22C158.139 84.1113 158.34 84.802 158.741 85.292C159.142 85.782 159.714 86.027 160.456 86.027C160.955 86.027 161.389 85.9127 161.758 85.684C162.127 85.4553 162.416 85.1263 162.626 84.697L163.823 85.11C163.529 85.7773 163.086 86.2953 162.493 86.664C161.905 87.028 161.245 87.21 160.512 87.21ZM157.719 83.57V82.569H163.305V83.57H157.719ZM173.693 87V83.213C173.693 82.8537 173.66 82.5083 173.595 82.177C173.534 81.8457 173.425 81.5493 173.266 81.288C173.112 81.022 172.902 80.812 172.636 80.658C172.375 80.504 172.043 80.427 171.642 80.427C171.329 80.427 171.045 80.4807 170.788 80.588C170.536 80.6907 170.319 80.8493 170.137 81.064C169.955 81.2787 169.813 81.5493 169.71 81.876C169.612 82.198 169.563 82.5783 169.563 83.017L168.744 82.765C168.744 82.0323 168.875 81.4047 169.136 80.882C169.402 80.3547 169.773 79.951 170.249 79.671C170.73 79.3863 171.294 79.244 171.943 79.244C172.433 79.244 172.851 79.321 173.196 79.475C173.541 79.629 173.828 79.8343 174.057 80.091C174.286 80.343 174.465 80.6277 174.596 80.945C174.727 81.2577 174.818 81.5773 174.869 81.904C174.925 82.226 174.953 82.5317 174.953 82.821V87H173.693ZM168.303 87V76.92H169.423V82.485H169.563V87H168.303ZM180.049 87.21C179.307 87.21 178.658 87.0467 178.103 86.72C177.552 86.3887 177.123 85.929 176.815 85.341C176.507 84.7483 176.353 84.0577 176.353 83.269C176.353 82.443 176.505 81.729 176.808 81.127C177.111 80.5203 177.534 80.0537 178.075 79.727C178.621 79.3957 179.26 79.23 179.993 79.23C180.754 79.23 181.4 79.405 181.932 79.755C182.469 80.105 182.87 80.6043 183.136 81.253C183.407 81.9017 183.523 82.674 183.486 83.57H182.226V83.122C182.212 82.1933 182.023 81.5003 181.659 81.043C181.295 80.581 180.754 80.35 180.035 80.35C179.265 80.35 178.679 80.5973 178.278 81.092C177.877 81.5867 177.676 82.296 177.676 83.22C177.676 84.1113 177.877 84.802 178.278 85.292C178.679 85.782 179.251 86.027 179.993 86.027C180.492 86.027 180.926 85.9127 181.295 85.684C181.664 85.4553 181.953 85.1263 182.163 84.697L183.36 85.11C183.066 85.7773 182.623 86.2953 182.03 86.664C181.442 87.028 180.782 87.21 180.049 87.21ZM177.256 83.57V82.569H182.842V83.57H177.256ZM187.057 87.21C186.492 87.21 186.018 87.1073 185.636 86.902C185.258 86.692 184.971 86.4167 184.775 86.076C184.583 85.7353 184.488 85.362 184.488 84.956C184.488 84.5593 184.562 84.2163 184.712 83.927C184.866 83.633 185.08 83.3903 185.356 83.199C185.631 83.003 185.96 82.849 186.343 82.737C186.702 82.639 187.103 82.555 187.547 82.485C187.995 82.4103 188.447 82.3427 188.905 82.282C189.362 82.2213 189.789 82.163 190.186 82.107L189.738 82.366C189.752 81.694 189.616 81.197 189.332 80.875C189.052 80.553 188.566 80.392 187.876 80.392C187.418 80.392 187.017 80.497 186.672 80.707C186.331 80.9123 186.091 81.2483 185.951 81.715L184.768 81.358C184.95 80.6953 185.302 80.175 185.825 79.797C186.347 79.419 187.036 79.23 187.89 79.23C188.576 79.23 189.164 79.3537 189.654 79.601C190.148 79.8437 190.503 80.2123 190.718 80.707C190.825 80.9403 190.893 81.1947 190.921 81.47C190.949 81.7407 190.963 82.0253 190.963 82.324V87H189.857V85.187L190.116 85.355C189.831 85.9663 189.432 86.4283 188.919 86.741C188.41 87.0537 187.789 87.21 187.057 87.21ZM187.246 86.167C187.694 86.167 188.081 86.0877 188.408 85.929C188.739 85.7657 189.005 85.5533 189.206 85.292C189.406 85.026 189.537 84.7367 189.598 84.424C189.668 84.1907 189.705 83.9317 189.71 83.647C189.719 83.3577 189.724 83.136 189.724 82.982L190.158 83.171C189.752 83.227 189.353 83.2807 188.961 83.332C188.569 83.3833 188.198 83.4393 187.848 83.5C187.498 83.556 187.183 83.6237 186.903 83.703C186.697 83.7683 186.504 83.8523 186.322 83.955C186.144 84.0577 186 84.1907 185.888 84.354C185.78 84.5127 185.727 84.711 185.727 84.949C185.727 85.1543 185.778 85.3503 185.881 85.537C185.988 85.7237 186.151 85.8753 186.371 85.992C186.595 86.1087 186.886 86.167 187.246 86.167ZM192.923 87V76.71H194.169V87H192.923ZM200.49 87C200.042 87.0887 199.599 87.1237 199.16 87.105C198.726 87.091 198.339 87.0047 197.998 86.846C197.657 86.6827 197.398 86.4307 197.221 86.09C197.072 85.7913 196.99 85.4903 196.976 85.187C196.967 84.879 196.962 84.5313 196.962 84.144V77.34H198.208V84.088C198.208 84.396 198.21 84.6597 198.215 84.879C198.224 85.0983 198.273 85.2873 198.362 85.446C198.53 85.7447 198.796 85.9197 199.16 85.971C199.529 86.0223 199.972 86.0083 200.49 85.929V87ZM195.429 80.469V79.44H200.49V80.469H195.429ZM207.408 87V83.213C207.408 82.8537 207.375 82.5083 207.31 82.177C207.249 81.8457 207.14 81.5493 206.981 81.288C206.827 81.022 206.617 80.812 206.351 80.658C206.09 80.504 205.758 80.427 205.357 80.427C205.044 80.427 204.76 80.4807 204.503 80.588C204.251 80.6907 204.034 80.8493 203.852 81.064C203.67 81.2787 203.528 81.5493 203.425 81.876C203.327 82.198 203.278 82.5783 203.278 83.017L202.459 82.765C202.459 82.0323 202.59 81.4047 202.851 80.882C203.117 80.3547 203.488 79.951 203.964 79.671C204.445 79.3863 205.009 79.244 205.658 79.244C206.148 79.244 206.566 79.321 206.911 79.475C207.256 79.629 207.543 79.8343 207.772 80.091C208.001 80.343 208.18 80.6277 208.311 80.945C208.442 81.2577 208.533 81.5773 208.584 81.904C208.64 82.226 208.668 82.5317 208.668 82.821V87H207.408ZM202.018 87V76.92H203.138V82.485H203.278V87H202.018ZM213.673 87.21C212.907 87.21 212.256 87.0397 211.72 86.699C211.188 86.3537 210.782 85.88 210.502 85.278C210.222 84.676 210.077 83.99 210.068 83.22C210.077 82.4313 210.224 81.7383 210.509 81.141C210.798 80.539 211.211 80.07 211.748 79.734C212.284 79.398 212.931 79.23 213.687 79.23C214.485 79.23 215.171 79.426 215.745 79.818C216.323 80.21 216.711 80.7467 216.907 81.428L215.675 81.799C215.516 81.3603 215.257 81.0197 214.898 80.777C214.543 80.5343 214.135 80.413 213.673 80.413C213.155 80.413 212.728 80.5343 212.392 80.777C212.056 81.015 211.806 81.3463 211.643 81.771C211.479 82.191 211.395 82.674 211.391 83.22C211.4 84.06 211.594 84.739 211.972 85.257C212.354 85.7703 212.921 86.027 213.673 86.027C214.167 86.027 214.578 85.915 214.905 85.691C215.231 85.4623 215.479 85.1333 215.647 84.704L216.907 85.033C216.645 85.7377 216.237 86.2767 215.682 86.65C215.126 87.0233 214.457 87.21 213.673 87.21ZM220.416 87.21C219.851 87.21 219.378 87.1073 218.995 86.902C218.617 86.692 218.33 86.4167 218.134 86.076C217.943 85.7353 217.847 85.362 217.847 84.956C217.847 84.5593 217.922 84.2163 218.071 83.927C218.225 83.633 218.44 83.3903 218.715 83.199C218.99 83.003 219.319 82.849 219.702 82.737C220.061 82.639 220.463 82.555 220.906 82.485C221.354 82.4103 221.807 82.3427 222.264 82.282C222.721 82.2213 223.148 82.163 223.545 82.107L223.097 82.366C223.111 81.694 222.976 81.197 222.691 80.875C222.411 80.553 221.926 80.392 221.235 80.392C220.778 80.392 220.376 80.497 220.031 80.707C219.69 80.9123 219.45 81.2483 219.31 81.715L218.127 81.358C218.309 80.6953 218.661 80.175 219.184 79.797C219.707 79.419 220.395 79.23 221.249 79.23C221.935 79.23 222.523 79.3537 223.013 79.601C223.508 79.8437 223.862 80.2123 224.077 80.707C224.184 80.9403 224.252 81.1947 224.28 81.47C224.308 81.7407 224.322 82.0253 224.322 82.324V87H223.216V85.187L223.475 85.355C223.19 85.9663 222.791 86.4283 222.278 86.741C221.769 87.0537 221.149 87.21 220.416 87.21ZM220.605 86.167C221.053 86.167 221.44 86.0877 221.767 85.929C222.098 85.7657 222.364 85.5533 222.565 85.292C222.766 85.026 222.896 84.7367 222.957 84.424C223.027 84.1907 223.064 83.9317 223.069 83.647C223.078 83.3577 223.083 83.136 223.083 82.982L223.517 83.171C223.111 83.227 222.712 83.2807 222.32 83.332C221.928 83.3833 221.557 83.4393 221.207 83.5C220.857 83.556 220.542 83.6237 220.262 83.703C220.057 83.7683 219.863 83.8523 219.681 83.955C219.504 84.0577 219.359 84.1907 219.247 84.354C219.14 84.5127 219.086 84.711 219.086 84.949C219.086 85.1543 219.137 85.3503 219.24 85.537C219.347 85.7237 219.511 85.8753 219.73 85.992C219.954 86.1087 220.246 86.167 220.605 86.167ZM226.142 87V79.44H227.255V81.267L227.073 81.029C227.162 80.7957 227.276 80.581 227.416 80.385C227.561 80.189 227.722 80.028 227.899 79.902C228.095 79.7433 228.317 79.622 228.564 79.538C228.811 79.454 229.063 79.405 229.32 79.391C229.577 79.3723 229.817 79.3887 230.041 79.44V80.609C229.78 80.539 229.493 80.5203 229.18 80.553C228.867 80.5857 228.578 80.7 228.312 80.896C228.069 81.0687 227.88 81.2787 227.745 81.526C227.614 81.7733 227.523 82.0417 227.472 82.331C227.421 82.6157 227.395 82.9073 227.395 83.206V87H226.142ZM234.504 87.21C233.762 87.21 233.113 87.0467 232.558 86.72C232.007 86.3887 231.578 85.929 231.27 85.341C230.962 84.7483 230.808 84.0577 230.808 83.269C230.808 82.443 230.96 81.729 231.263 81.127C231.566 80.5203 231.989 80.0537 232.53 79.727C233.076 79.3957 233.715 79.23 234.448 79.23C235.209 79.23 235.855 79.405 236.387 79.755C236.924 80.105 237.325 80.6043 237.591 81.253C237.862 81.9017 237.978 82.674 237.941 83.57H236.681V83.122C236.667 82.1933 236.478 81.5003 236.114 81.043C235.75 80.581 235.209 80.35 234.49 80.35C233.72 80.35 233.134 80.5973 232.733 81.092C232.332 81.5867 232.131 82.296 232.131 83.22C232.131 84.1113 232.332 84.802 232.733 85.292C233.134 85.782 233.706 86.027 234.448 86.027C234.947 86.027 235.381 85.9127 235.75 85.684C236.119 85.4553 236.408 85.1263 236.618 84.697L237.815 85.11C237.521 85.7773 237.078 86.2953 236.485 86.664C235.897 87.028 235.237 87.21 234.504 87.21ZM231.711 83.57V82.569H237.297V83.57H231.711ZM247.254 87.21C246.689 87.21 246.216 87.1073 245.833 86.902C245.455 86.692 245.168 86.4167 244.972 86.076C244.781 85.7353 244.685 85.362 244.685 84.956C244.685 84.5593 244.76 84.2163 244.909 83.927C245.063 83.633 245.278 83.3903 245.553 83.199C245.828 83.003 246.157 82.849 246.54 82.737C246.899 82.639 247.301 82.555 247.744 82.485C248.192 82.4103 248.645 82.3427 249.102 82.282C249.559 82.2213 249.986 82.163 250.383 82.107L249.935 82.366C249.949 81.694 249.814 81.197 249.529 80.875C249.249 80.553 248.764 80.392 248.073 80.392C247.616 80.392 247.214 80.497 246.869 80.707C246.528 80.9123 246.288 81.2483 246.148 81.715L244.965 81.358C245.147 80.6953 245.499 80.175 246.022 79.797C246.545 79.419 247.233 79.23 248.087 79.23C248.773 79.23 249.361 79.3537 249.851 79.601C250.346 79.8437 250.7 80.2123 250.915 80.707C251.022 80.9403 251.09 81.1947 251.118 81.47C251.146 81.7407 251.16 82.0253 251.16 82.324V87H250.054V85.187L250.313 85.355C250.028 85.9663 249.629 86.4283 249.116 86.741C248.607 87.0537 247.987 87.21 247.254 87.21ZM247.443 86.167C247.891 86.167 248.278 86.0877 248.605 85.929C248.936 85.7657 249.202 85.5533 249.403 85.292C249.604 85.026 249.734 84.7367 249.795 84.424C249.865 84.1907 249.902 83.9317 249.907 83.647C249.916 83.3577 249.921 83.136 249.921 82.982L250.355 83.171C249.949 83.227 249.55 83.2807 249.158 83.332C248.766 83.3833 248.395 83.4393 248.045 83.5C247.695 83.556 247.38 83.6237 247.1 83.703C246.895 83.7683 246.701 83.8523 246.519 83.955C246.342 84.0577 246.197 84.1907 246.085 84.354C245.978 84.5127 245.924 84.711 245.924 84.949C245.924 85.1543 245.975 85.3503 246.078 85.537C246.185 85.7237 246.349 85.8753 246.568 85.992C246.792 86.1087 247.084 86.167 247.443 86.167ZM258.363 87V83.213C258.363 82.8537 258.33 82.5083 258.265 82.177C258.204 81.8457 258.095 81.5493 257.936 81.288C257.782 81.022 257.572 80.812 257.306 80.658C257.045 80.504 256.713 80.427 256.312 80.427C255.999 80.427 255.715 80.4807 255.458 80.588C255.206 80.6907 254.989 80.8493 254.807 81.064C254.625 81.2787 254.483 81.5493 254.38 81.876C254.282 82.198 254.233 82.5783 254.233 83.017L253.414 82.765C253.414 82.0323 253.545 81.4047 253.806 80.882C254.072 80.3547 254.443 79.951 254.919 79.671C255.4 79.3863 255.964 79.244 256.613 79.244C257.103 79.244 257.521 79.321 257.866 79.475C258.211 79.629 258.498 79.8343 258.727 80.091C258.956 80.343 259.135 80.6277 259.266 80.945C259.397 81.2577 259.488 81.5773 259.539 81.904C259.595 82.226 259.623 82.5317 259.623 82.821V87H258.363ZM252.973 87V79.44H254.093V81.463H254.233V87H252.973ZM264.343 87.21C263.638 87.21 263.034 87.035 262.53 86.685C262.026 86.3303 261.636 85.852 261.361 85.25C261.09 84.648 260.955 83.969 260.955 83.213C260.955 82.457 261.09 81.778 261.361 81.176C261.636 80.574 262.026 80.1003 262.53 79.755C263.034 79.405 263.636 79.23 264.336 79.23C265.05 79.23 265.649 79.4027 266.135 79.748C266.62 80.0933 266.986 80.567 267.234 81.169C267.486 81.771 267.612 82.4523 267.612 83.213C267.612 83.9643 267.486 84.6433 267.234 85.25C266.986 85.852 266.62 86.3303 266.135 86.685C265.649 87.035 265.052 87.21 264.343 87.21ZM264.497 86.069C265.005 86.069 265.423 85.9477 265.75 85.705C266.076 85.4577 266.317 85.1193 266.471 84.69C266.629 84.256 266.709 83.7637 266.709 83.213C266.709 82.653 266.629 82.1607 266.471 81.736C266.317 81.3067 266.079 80.973 265.757 80.735C265.435 80.4923 265.026 80.371 264.532 80.371C264.018 80.371 263.594 80.497 263.258 80.749C262.926 81.001 262.679 81.3417 262.516 81.771C262.357 82.2003 262.278 82.681 262.278 83.213C262.278 83.7497 262.359 84.235 262.523 84.669C262.686 85.0983 262.931 85.439 263.258 85.691C263.589 85.943 264.002 86.069 264.497 86.069ZM266.709 87V81.435H266.569V76.92H267.822V87H266.709ZM272.725 87V76.92H273.971V87H272.725ZM276.142 80.07L276.219 79.489C276.415 79.503 276.562 79.4657 276.66 79.377C276.758 79.2883 276.821 79.167 276.849 79.013C276.877 78.859 276.881 78.6887 276.863 78.502H276.142V76.92H277.514V78.712C277.514 79.202 277.392 79.5707 277.15 79.818C276.912 80.0653 276.576 80.1493 276.142 80.07ZM288.499 87L288.506 82.163C288.506 81.5983 288.355 81.1573 288.051 80.84C287.753 80.518 287.363 80.357 286.882 80.357C286.602 80.357 286.336 80.4223 286.084 80.553C285.832 80.679 285.627 80.8797 285.468 81.155C285.31 81.4257 285.23 81.7733 285.23 82.198L284.572 81.932C284.563 81.3953 284.673 80.9263 284.901 80.525C285.135 80.119 285.452 79.804 285.853 79.58C286.255 79.356 286.707 79.244 287.211 79.244C288 79.244 288.621 79.4843 289.073 79.965C289.526 80.441 289.752 81.0827 289.752 81.89L289.745 87H288.499ZM279.455 87V79.44H280.568V81.463H280.708V87H279.455ZM283.984 87L283.991 82.212C283.991 81.6333 283.842 81.1807 283.543 80.854C283.245 80.5227 282.848 80.357 282.353 80.357C281.863 80.357 281.467 80.525 281.163 80.861C280.86 81.197 280.708 81.6427 280.708 82.198L280.05 81.806C280.05 81.316 280.167 80.8773 280.4 80.49C280.634 80.1027 280.951 79.7993 281.352 79.58C281.754 79.356 282.209 79.244 282.717 79.244C283.226 79.244 283.669 79.3513 284.047 79.566C284.425 79.7807 284.717 80.0887 284.922 80.49C285.128 80.8867 285.23 81.3603 285.23 81.911L285.223 87H283.984ZM45.024 105L42.28 97.44H43.54L45.661 103.411L47.775 97.44H49.042L46.298 105H45.024ZM53.3107 105.21C52.5687 105.21 51.92 105.047 51.3647 104.72C50.814 104.389 50.3847 103.929 50.0767 103.341C49.7687 102.748 49.6147 102.058 49.6147 101.269C49.6147 100.443 49.7664 99.729 50.0697 99.127C50.373 98.5203 50.7954 98.0537 51.3367 97.727C51.8827 97.3957 52.522 97.23 53.2547 97.23C54.0154 97.23 54.6617 97.405 55.1937 97.755C55.7304 98.105 56.1317 98.6043 56.3977 99.253C56.6684 99.9017 56.785 100.674 56.7477 101.57H55.4877V101.122C55.4737 100.193 55.2847 99.5003 54.9207 99.043C54.5567 98.581 54.0154 98.35 53.2967 98.35C52.5267 98.35 51.941 98.5973 51.5397 99.092C51.1384 99.5867 50.9377 100.296 50.9377 101.22C50.9377 102.111 51.1384 102.802 51.5397 103.292C51.941 103.782 52.5127 104.027 53.2547 104.027C53.754 104.027 54.188 103.913 54.5567 103.684C54.9254 103.455 55.2147 103.126 55.4247 102.697L56.6217 103.11C56.3277 103.777 55.8844 104.295 55.2917 104.664C54.7037 105.028 54.0434 105.21 53.3107 105.21ZM50.5177 101.57V100.569H56.1037V101.57H50.5177ZM58.3062 105V97.44H59.4192V99.267L59.2372 99.029C59.3258 98.7957 59.4402 98.581 59.5802 98.385C59.7248 98.189 59.8858 98.028 60.0632 97.902C60.2592 97.7433 60.4808 97.622 60.7282 97.538C60.9755 97.454 61.2275 97.405 61.4842 97.391C61.7408 97.3723 61.9812 97.3887 62.2052 97.44V98.609C61.9438 98.539 61.6568 98.5203 61.3442 98.553C61.0315 98.5857 60.7422 98.7 60.4762 98.896C60.2335 99.0687 60.0445 99.2787 59.9092 99.526C59.7785 99.7733 59.6875 100.042 59.6362 100.331C59.5848 100.616 59.5592 100.907 59.5592 101.206V105H58.3062ZM64.4421 108.36L65.9051 104.384L65.9261 105.56L62.6221 97.44H63.9311L66.5211 103.971H66.0731L68.5021 97.44H69.7691L65.6531 108.36H64.4421ZM73.868 96.103V94.815H75.114V96.103H73.868ZM73.868 105V97.44H75.114V105H73.868ZM86.2514 105L86.2584 100.163C86.2584 99.5983 86.1067 99.1573 85.8034 98.84C85.5047 98.518 85.115 98.357 84.6344 98.357C84.3544 98.357 84.0884 98.4223 83.8364 98.553C83.5844 98.679 83.379 98.8797 83.2204 99.155C83.0617 99.4257 82.9824 99.7733 82.9824 100.198L82.3244 99.932C82.315 99.3953 82.4247 98.9263 82.6534 98.525C82.8867 98.119 83.204 97.804 83.6054 97.58C84.0067 97.356 84.4594 97.244 84.9634 97.244C85.752 97.244 86.3727 97.4843 86.8254 97.965C87.278 98.441 87.5044 99.0827 87.5044 99.89L87.4974 105H86.2514ZM77.2074 105V97.44H78.3204V99.463H78.4604V105H77.2074ZM81.7364 105L81.7434 100.212C81.7434 99.6333 81.594 99.1807 81.2954 98.854C80.9967 98.5227 80.6 98.357 80.1054 98.357C79.6154 98.357 79.2187 98.525 78.9154 98.861C78.612 99.197 78.4604 99.6427 78.4604 100.198L77.8024 99.806C77.8024 99.316 77.919 98.8773 78.1524 98.49C78.3857 98.1027 78.703 97.7993 79.1044 97.58C79.5057 97.356 79.9607 97.244 80.4694 97.244C80.978 97.244 81.4214 97.3513 81.7994 97.566C82.1774 97.7807 82.469 98.0887 82.6744 98.49C82.8797 98.8867 82.9824 99.3603 82.9824 99.911L82.9754 105H81.7364ZM92.7997 105.21C92.0903 105.21 91.493 105.035 91.0077 104.685C90.5223 104.33 90.1537 103.852 89.9017 103.25C89.6543 102.643 89.5307 101.964 89.5307 101.213C89.5307 100.452 89.6543 99.771 89.9017 99.169C90.1537 98.567 90.5223 98.0933 91.0077 97.748C91.4977 97.4027 92.0973 97.23 92.8067 97.23C93.5067 97.23 94.1087 97.405 94.6127 97.755C95.1213 98.1003 95.511 98.574 95.7817 99.176C96.0523 99.778 96.1877 100.457 96.1877 101.213C96.1877 101.969 96.0523 102.648 95.7817 103.25C95.511 103.852 95.1213 104.33 94.6127 104.685C94.1087 105.035 93.5043 105.21 92.7997 105.21ZM89.3207 108.36V97.44H90.4337V103.005H90.5737V108.36H89.3207ZM92.6457 104.069C93.145 104.069 93.558 103.943 93.8847 103.691C94.2113 103.439 94.4563 103.098 94.6197 102.669C94.783 102.235 94.8647 101.75 94.8647 101.213C94.8647 100.681 94.783 100.2 94.6197 99.771C94.461 99.3417 94.2137 99.001 93.8777 98.749C93.5463 98.497 93.124 98.371 92.6107 98.371C92.1207 98.371 91.7147 98.4923 91.3927 98.735C91.0707 98.973 90.8303 99.3067 90.6717 99.736C90.513 100.161 90.4337 100.653 90.4337 101.213C90.4337 101.764 90.5107 102.256 90.6647 102.69C90.8233 103.119 91.066 103.458 91.3927 103.705C91.7193 103.948 92.137 104.069 92.6457 104.069ZM97.7222 105V97.44H98.8352V99.267L98.6532 99.029C98.7419 98.7957 98.8562 98.581 98.9962 98.385C99.1409 98.189 99.3019 98.028 99.4792 97.902C99.6752 97.7433 99.8969 97.622 100.144 97.538C100.392 97.454 100.644 97.405 100.9 97.391C101.157 97.3723 101.397 97.3887 101.621 97.44V98.609C101.36 98.539 101.073 98.5203 100.76 98.553C100.448 98.5857 100.158 98.7 99.8922 98.896C99.6495 99.0687 99.4605 99.2787 99.3252 99.526C99.1945 99.7733 99.1035 100.042 99.0522 100.331C99.0009 100.616 98.9752 100.907 98.9752 101.206V105H97.7222ZM106.084 105.21C105.342 105.21 104.693 105.047 104.138 104.72C103.587 104.389 103.158 103.929 102.85 103.341C102.542 102.748 102.388 102.058 102.388 101.269C102.388 100.443 102.54 99.729 102.843 99.127C103.146 98.5203 103.569 98.0537 104.11 97.727C104.656 97.3957 105.295 97.23 106.028 97.23C106.789 97.23 107.435 97.405 107.967 97.755C108.504 98.105 108.905 98.6043 109.171 99.253C109.442 99.9017 109.558 100.674 109.521 101.57H108.261V101.122C108.247 100.193 108.058 99.5003 107.694 99.043C107.33 98.581 106.789 98.35 106.07 98.35C105.3 98.35 104.714 98.5973 104.313 99.092C103.912 99.5867 103.711 100.296 103.711 101.22C103.711 102.111 103.912 102.802 104.313 103.292C104.714 103.782 105.286 104.027 106.028 104.027C106.527 104.027 106.961 103.913 107.33 103.684C107.699 103.455 107.988 103.126 108.198 102.697L109.395 103.11C109.101 103.777 108.658 104.295 108.065 104.664C107.477 105.028 106.817 105.21 106.084 105.21ZM103.291 101.57V100.569H108.877V101.57H103.291ZM113.936 105.203C113.035 105.203 112.295 105.007 111.717 104.615C111.143 104.218 110.79 103.665 110.66 102.956L111.934 102.753C112.036 103.164 112.272 103.49 112.641 103.733C113.009 103.971 113.467 104.09 114.013 104.09C114.531 104.09 114.937 103.983 115.231 103.768C115.525 103.553 115.672 103.262 115.672 102.893C115.672 102.678 115.623 102.506 115.525 102.375C115.427 102.24 115.224 102.114 114.916 101.997C114.612 101.88 114.153 101.74 113.537 101.577C112.869 101.4 112.344 101.215 111.962 101.024C111.579 100.833 111.306 100.611 111.143 100.359C110.979 100.107 110.898 99.8013 110.898 99.442C110.898 98.9987 111.019 98.6113 111.262 98.28C111.504 97.944 111.843 97.685 112.277 97.503C112.715 97.321 113.224 97.23 113.803 97.23C114.377 97.23 114.89 97.321 115.343 97.503C115.795 97.685 116.159 97.944 116.435 98.28C116.715 98.6113 116.88 98.9987 116.932 99.442L115.658 99.673C115.597 99.267 115.401 98.9473 115.07 98.714C114.743 98.4807 114.321 98.357 113.803 98.343C113.313 98.3243 112.914 98.4107 112.606 98.602C112.302 98.7933 112.151 99.0523 112.151 99.379C112.151 99.561 112.207 99.7173 112.319 99.848C112.435 99.9787 112.648 100.102 112.956 100.219C113.268 100.336 113.721 100.469 114.314 100.618C114.981 100.786 115.506 100.97 115.889 101.171C116.276 101.367 116.551 101.6 116.715 101.871C116.878 102.137 116.96 102.466 116.96 102.858C116.96 103.586 116.691 104.16 116.155 104.58C115.618 104.995 114.878 105.203 113.936 105.203ZM121.359 105.203C120.459 105.203 119.719 105.007 119.14 104.615C118.566 104.218 118.214 103.665 118.083 102.956L119.357 102.753C119.46 103.164 119.696 103.49 120.064 103.733C120.433 103.971 120.89 104.09 121.436 104.09C121.954 104.09 122.36 103.983 122.654 103.768C122.948 103.553 123.095 103.262 123.095 102.893C123.095 102.678 123.046 102.506 122.948 102.375C122.85 102.24 122.647 102.114 122.339 101.997C122.036 101.88 121.576 101.74 120.96 101.577C120.293 101.4 119.768 101.215 119.385 101.024C119.003 100.833 118.73 100.611 118.566 100.359C118.403 100.107 118.321 99.8013 118.321 99.442C118.321 98.9987 118.443 98.6113 118.685 98.28C118.928 97.944 119.266 97.685 119.7 97.503C120.139 97.321 120.648 97.23 121.226 97.23C121.8 97.23 122.314 97.321 122.766 97.503C123.219 97.685 123.583 97.944 123.858 98.28C124.138 98.6113 124.304 98.9987 124.355 99.442L123.081 99.673C123.021 99.267 122.825 98.9473 122.493 98.714C122.167 98.4807 121.744 98.357 121.226 98.343C120.736 98.3243 120.337 98.4107 120.029 98.602C119.726 98.7933 119.574 99.0523 119.574 99.379C119.574 99.561 119.63 99.7173 119.742 99.848C119.859 99.9787 120.071 100.102 120.379 100.219C120.692 100.336 121.145 100.469 121.737 100.618C122.405 100.786 122.93 100.97 123.312 101.171C123.7 101.367 123.975 101.6 124.138 101.871C124.302 102.137 124.383 102.466 124.383 102.858C124.383 103.586 124.115 104.16 123.578 104.58C123.042 104.995 122.302 105.203 121.359 105.203ZM129.203 105.21C128.461 105.21 127.813 105.047 127.257 104.72C126.707 104.389 126.277 103.929 125.969 103.341C125.661 102.748 125.507 102.058 125.507 101.269C125.507 100.443 125.659 99.729 125.962 99.127C126.266 98.5203 126.688 98.0537 127.229 97.727C127.775 97.3957 128.415 97.23 129.147 97.23C129.908 97.23 130.554 97.405 131.086 97.755C131.623 98.105 132.024 98.6043 132.29 99.253C132.561 99.9017 132.678 100.674 132.64 101.57H131.38V101.122C131.366 100.193 131.177 99.5003 130.813 99.043C130.449 98.581 129.908 98.35 129.189 98.35C128.419 98.35 127.834 98.5973 127.432 99.092C127.031 99.5867 126.83 100.296 126.83 101.22C126.83 102.111 127.031 102.802 127.432 103.292C127.834 103.782 128.405 104.027 129.147 104.027C129.647 104.027 130.081 103.913 130.449 103.684C130.818 103.455 131.107 103.126 131.317 102.697L132.514 103.11C132.22 103.777 131.777 104.295 131.184 104.664C130.596 105.028 129.936 105.21 129.203 105.21ZM126.41 101.57V100.569H131.996V101.57H126.41ZM137.167 105.21C136.462 105.21 135.858 105.035 135.354 104.685C134.85 104.33 134.46 103.852 134.185 103.25C133.914 102.648 133.779 101.969 133.779 101.213C133.779 100.457 133.914 99.778 134.185 99.176C134.46 98.574 134.85 98.1003 135.354 97.755C135.858 97.405 136.46 97.23 137.16 97.23C137.874 97.23 138.473 97.4027 138.959 97.748C139.444 98.0933 139.81 98.567 140.058 99.169C140.31 99.771 140.436 100.452 140.436 101.213C140.436 101.964 140.31 102.643 140.058 103.25C139.81 103.852 139.444 104.33 138.959 104.685C138.473 105.035 137.876 105.21 137.167 105.21ZM137.321 104.069C137.829 104.069 138.247 103.948 138.574 103.705C138.9 103.458 139.141 103.119 139.295 102.69C139.453 102.256 139.533 101.764 139.533 101.213C139.533 100.653 139.453 100.161 139.295 99.736C139.141 99.3067 138.903 98.973 138.581 98.735C138.259 98.4923 137.85 98.371 137.356 98.371C136.842 98.371 136.418 98.497 136.082 98.749C135.75 99.001 135.503 99.3417 135.34 99.771C135.181 100.2 135.102 100.681 135.102 101.213C135.102 101.75 135.183 102.235 135.347 102.669C135.51 103.098 135.755 103.439 136.082 103.691C136.413 103.943 136.826 104.069 137.321 104.069ZM139.533 105V99.435H139.393V94.92H140.646V105H139.533ZM147.02 105L144.71 97.433L145.949 97.44L147.636 102.97L149.337 97.44H150.436L152.13 102.97L153.824 97.44H155.056L152.746 105H151.71L149.883 99.253L148.056 105H147.02ZM156.46 96.103V94.815H157.706V96.103H156.46ZM156.46 105V97.44H157.706V105H156.46ZM164.027 105C163.579 105.089 163.136 105.124 162.697 105.105C162.263 105.091 161.876 105.005 161.535 104.846C161.195 104.683 160.936 104.431 160.758 104.09C160.609 103.791 160.527 103.49 160.513 103.187C160.504 102.879 160.499 102.531 160.499 102.144V95.34H161.745V102.088C161.745 102.396 161.748 102.66 161.752 102.879C161.762 103.098 161.811 103.287 161.899 103.446C162.067 103.745 162.333 103.92 162.697 103.971C163.066 104.022 163.509 104.008 164.027 103.929V105ZM158.966 98.469V97.44H164.027V98.469H158.966ZM170.945 105V101.213C170.945 100.854 170.912 100.508 170.847 100.177C170.786 99.8457 170.677 99.5493 170.518 99.288C170.364 99.022 170.154 98.812 169.888 98.658C169.627 98.504 169.295 98.427 168.894 98.427C168.581 98.427 168.297 98.4807 168.04 98.588C167.788 98.6907 167.571 98.8493 167.389 99.064C167.207 99.2787 167.065 99.5493 166.962 99.876C166.864 100.198 166.815 100.578 166.815 101.017L165.996 100.765C165.996 100.032 166.127 99.4047 166.388 98.882C166.654 98.3547 167.025 97.951 167.501 97.671C167.982 97.3863 168.546 97.244 169.195 97.244C169.685 97.244 170.103 97.321 170.448 97.475C170.793 97.629 171.08 97.8343 171.309 98.091C171.538 98.343 171.717 98.6277 171.848 98.945C171.979 99.2577 172.07 99.5773 172.121 99.904C172.177 100.226 172.205 100.532 172.205 100.821V105H170.945ZM165.555 105V94.92H166.675V100.485H166.815V105H165.555ZM176.968 96.103V94.815H178.214V96.103H176.968ZM176.968 105V97.44H178.214V105H176.968ZM184.535 105C184.087 105.089 183.644 105.124 183.205 105.105C182.771 105.091 182.384 105.005 182.043 104.846C181.702 104.683 181.443 104.431 181.266 104.09C181.117 103.791 181.035 103.49 181.021 103.187C181.012 102.879 181.007 102.531 181.007 102.144V95.34H182.253V102.088C182.253 102.396 182.255 102.66 182.26 102.879C182.269 103.098 182.318 103.287 182.407 103.446C182.575 103.745 182.841 103.92 183.205 103.971C183.574 104.022 184.017 104.008 184.535 103.929V105ZM179.474 98.469V97.44H184.535V98.469H179.474ZM188.926 105.203C188.025 105.203 187.286 105.007 186.707 104.615C186.133 104.218 185.781 103.665 185.65 102.956L186.924 102.753C187.027 103.164 187.262 103.49 187.631 103.733C188 103.971 188.457 104.09 189.003 104.09C189.521 104.09 189.927 103.983 190.221 103.768C190.515 103.553 190.662 103.262 190.662 102.893C190.662 102.678 190.613 102.506 190.515 102.375C190.417 102.24 190.214 102.114 189.906 101.997C189.603 101.88 189.143 101.74 188.527 101.577C187.86 101.4 187.335 101.215 186.952 101.024C186.569 100.833 186.296 100.611 186.133 100.359C185.97 100.107 185.888 99.8013 185.888 99.442C185.888 98.9987 186.009 98.6113 186.252 98.28C186.495 97.944 186.833 97.685 187.267 97.503C187.706 97.321 188.214 97.23 188.793 97.23C189.367 97.23 189.88 97.321 190.333 97.503C190.786 97.685 191.15 97.944 191.425 98.28C191.705 98.6113 191.871 98.9987 191.922 99.442L190.648 99.673C190.587 99.267 190.391 98.9473 190.06 98.714C189.733 98.4807 189.311 98.357 188.793 98.343C188.303 98.3243 187.904 98.4107 187.596 98.602C187.293 98.7933 187.141 99.0523 187.141 99.379C187.141 99.561 187.197 99.7173 187.309 99.848C187.426 99.9787 187.638 100.102 187.946 100.219C188.259 100.336 188.711 100.469 189.304 100.618C189.971 100.786 190.496 100.97 190.879 101.171C191.266 101.367 191.542 101.6 191.705 101.871C191.868 102.137 191.95 102.466 191.95 102.858C191.95 103.586 191.682 104.16 191.145 104.58C190.608 104.995 189.869 105.203 188.926 105.203ZM197.017 105V97.027C197.017 96.831 197.027 96.6327 197.045 96.432C197.064 96.2267 197.106 96.0283 197.171 95.837C197.237 95.641 197.344 95.4613 197.493 95.298C197.666 95.1067 197.855 94.9713 198.06 94.892C198.266 94.808 198.473 94.7567 198.683 94.738C198.898 94.7193 199.101 94.71 199.292 94.71H200.251V95.746H199.362C198.994 95.746 198.718 95.837 198.536 96.019C198.354 96.1963 198.263 96.467 198.263 96.831V105H197.017ZM195.736 98.469V97.44H200.251V98.469H195.736ZM204.371 105.21C203.629 105.21 202.981 105.047 202.425 104.72C201.875 104.389 201.445 103.929 201.137 103.341C200.829 102.748 200.675 102.058 200.675 101.269C200.675 100.443 200.827 99.729 201.13 99.127C201.434 98.5203 201.856 98.0537 202.397 97.727C202.943 97.3957 203.583 97.23 204.315 97.23C205.076 97.23 205.722 97.405 206.254 97.755C206.791 98.105 207.192 98.6043 207.458 99.253C207.729 99.9017 207.846 100.674 207.808 101.57H206.548V101.122C206.534 100.193 206.345 99.5003 205.981 99.043C205.617 98.581 205.076 98.35 204.357 98.35C203.587 98.35 203.002 98.5973 202.6 99.092C202.199 99.5867 201.998 100.296 201.998 101.22C201.998 102.111 202.199 102.802 202.6 103.292C203.002 103.782 203.573 104.027 204.315 104.027C204.815 104.027 205.249 103.913 205.617 103.684C205.986 103.455 206.275 103.126 206.485 102.697L207.682 103.11C207.388 103.777 206.945 104.295 206.352 104.664C205.764 105.028 205.104 105.21 204.371 105.21ZM201.578 101.57V100.569H207.164V101.57H201.578ZM211.379 105.21C210.814 105.21 210.341 105.107 209.958 104.902C209.58 104.692 209.293 104.417 209.097 104.076C208.906 103.735 208.81 103.362 208.81 102.956C208.81 102.559 208.885 102.216 209.034 101.927C209.188 101.633 209.403 101.39 209.678 101.199C209.953 101.003 210.282 100.849 210.665 100.737C211.024 100.639 211.426 100.555 211.869 100.485C212.317 100.41 212.77 100.343 213.227 100.282C213.684 100.221 214.111 100.163 214.508 100.107L214.06 100.366C214.074 99.694 213.939 99.197 213.654 98.875C213.374 98.553 212.889 98.392 212.198 98.392C211.741 98.392 211.339 98.497 210.994 98.707C210.653 98.9123 210.413 99.2483 210.273 99.715L209.09 99.358C209.272 98.6953 209.624 98.175 210.147 97.797C210.67 97.419 211.358 97.23 212.212 97.23C212.898 97.23 213.486 97.3537 213.976 97.601C214.471 97.8437 214.825 98.2123 215.04 98.707C215.147 98.9403 215.215 99.1947 215.243 99.47C215.271 99.7407 215.285 100.025 215.285 100.324V105H214.179V103.187L214.438 103.355C214.153 103.966 213.754 104.428 213.241 104.741C212.732 105.054 212.112 105.21 211.379 105.21ZM211.568 104.167C212.016 104.167 212.403 104.088 212.73 103.929C213.061 103.766 213.327 103.553 213.528 103.292C213.729 103.026 213.859 102.737 213.92 102.424C213.99 102.191 214.027 101.932 214.032 101.647C214.041 101.358 214.046 101.136 214.046 100.982L214.48 101.171C214.074 101.227 213.675 101.281 213.283 101.332C212.891 101.383 212.52 101.439 212.17 101.5C211.82 101.556 211.505 101.624 211.225 101.703C211.02 101.768 210.826 101.852 210.644 101.955C210.467 102.058 210.322 102.191 210.21 102.354C210.103 102.513 210.049 102.711 210.049 102.949C210.049 103.154 210.1 103.35 210.203 103.537C210.31 103.724 210.474 103.875 210.693 103.992C210.917 104.109 211.209 104.167 211.568 104.167ZM221.326 105C220.878 105.089 220.435 105.124 219.996 105.105C219.562 105.091 219.175 105.005 218.834 104.846C218.493 104.683 218.234 104.431 218.057 104.09C217.908 103.791 217.826 103.49 217.812 103.187C217.803 102.879 217.798 102.531 217.798 102.144V95.34H219.044V102.088C219.044 102.396 219.046 102.66 219.051 102.879C219.06 103.098 219.109 103.287 219.198 103.446C219.366 103.745 219.632 103.92 219.996 103.971C220.365 104.022 220.808 104.008 221.326 103.929V105ZM216.265 98.469V97.44H221.326V98.469H216.265ZM225.731 105.196C225.246 105.196 224.828 105.119 224.478 104.965C224.133 104.811 223.846 104.606 223.617 104.349C223.388 104.092 223.209 103.808 223.078 103.495C222.947 103.182 222.854 102.863 222.798 102.536C222.747 102.209 222.721 101.904 222.721 101.619V97.44H223.981V101.227C223.981 101.582 224.014 101.925 224.079 102.256C224.144 102.587 224.254 102.886 224.408 103.152C224.567 103.418 224.777 103.628 225.038 103.782C225.304 103.936 225.635 104.013 226.032 104.013C226.345 104.013 226.629 103.959 226.886 103.852C227.143 103.745 227.362 103.586 227.544 103.376C227.726 103.161 227.866 102.891 227.964 102.564C228.062 102.237 228.111 101.857 228.111 101.423L228.93 101.675C228.93 102.403 228.797 103.031 228.531 103.558C228.27 104.085 227.899 104.491 227.418 104.776C226.942 105.056 226.38 105.196 225.731 105.196ZM228.251 105V102.977H228.111V97.44H229.364V105H228.251ZM231.324 105V97.44H232.437V99.267L232.255 99.029C232.343 98.7957 232.458 98.581 232.598 98.385C232.742 98.189 232.903 98.028 233.081 97.902C233.277 97.7433 233.498 97.622 233.746 97.538C233.993 97.454 234.245 97.405 234.502 97.391C234.758 97.3723 234.999 97.3887 235.223 97.44V98.609C234.961 98.539 234.674 98.5203 234.362 98.553C234.049 98.5857 233.76 98.7 233.494 98.896C233.251 99.0687 233.062 99.2787 232.927 99.526C232.796 99.7733 232.705 100.042 232.654 100.331C232.602 100.616 232.577 100.907 232.577 101.206V105H231.324ZM239.686 105.21C238.944 105.21 238.295 105.047 237.74 104.72C237.189 104.389 236.76 103.929 236.452 103.341C236.144 102.748 235.99 102.058 235.99 101.269C235.99 100.443 236.141 99.729 236.445 99.127C236.748 98.5203 237.17 98.0537 237.712 97.727C238.258 97.3957 238.897 97.23 239.63 97.23C240.39 97.23 241.037 97.405 241.569 97.755C242.105 98.105 242.507 98.6043 242.773 99.253C243.043 99.9017 243.16 100.674 243.123 101.57H241.863V101.122C241.849 100.193 241.66 99.5003 241.296 99.043C240.932 98.581 240.39 98.35 239.672 98.35C238.902 98.35 238.316 98.5973 237.915 99.092C237.513 99.5867 237.313 100.296 237.313 101.22C237.313 102.111 237.513 102.802 237.915 103.292C238.316 103.782 238.888 104.027 239.63 104.027C240.129 104.027 240.563 103.913 240.932 103.684C241.3 103.455 241.59 103.126 241.8 102.697L242.997 103.11C242.703 103.777 242.259 104.295 241.667 104.664C241.079 105.028 240.418 105.21 239.686 105.21ZM236.893 101.57V100.569H242.479V101.57H236.893ZM247.537 105.203C246.637 105.203 245.897 105.007 245.318 104.615C244.744 104.218 244.392 103.665 244.261 102.956L245.535 102.753C245.638 103.164 245.874 103.49 246.242 103.733C246.611 103.971 247.068 104.09 247.614 104.09C248.132 104.09 248.538 103.983 248.832 103.768C249.126 103.553 249.273 103.262 249.273 102.893C249.273 102.678 249.224 102.506 249.126 102.375C249.028 102.24 248.825 102.114 248.517 101.997C248.214 101.88 247.754 101.74 247.138 101.577C246.471 101.4 245.946 101.215 245.563 101.024C245.181 100.833 244.908 100.611 244.744 100.359C244.581 100.107 244.499 99.8013 244.499 99.442C244.499 98.9987 244.621 98.6113 244.863 98.28C245.106 97.944 245.444 97.685 245.878 97.503C246.317 97.321 246.826 97.23 247.404 97.23C247.978 97.23 248.492 97.321 248.944 97.503C249.397 97.685 249.761 97.944 250.036 98.28C250.316 98.6113 250.482 98.9987 250.533 99.442L249.259 99.673C249.199 99.267 249.003 98.9473 248.671 98.714C248.345 98.4807 247.922 98.357 247.404 98.343C246.914 98.3243 246.515 98.4107 246.207 98.602C245.904 98.7933 245.752 99.0523 245.752 99.379C245.752 99.561 245.808 99.7173 245.92 99.848C246.037 99.9787 246.249 100.102 246.557 100.219C246.87 100.336 247.323 100.469 247.915 100.618C248.583 100.786 249.108 100.97 249.49 101.171C249.878 101.367 250.153 101.6 250.316 101.871C250.48 102.137 250.561 102.466 250.561 102.858C250.561 103.586 250.293 104.16 249.756 104.58C249.22 104.995 248.48 105.203 247.537 105.203ZM257.057 105.21C256.492 105.21 256.018 105.107 255.636 104.902C255.258 104.692 254.971 104.417 254.775 104.076C254.583 103.735 254.488 103.362 254.488 102.956C254.488 102.559 254.562 102.216 254.712 101.927C254.866 101.633 255.08 101.39 255.356 101.199C255.631 101.003 255.96 100.849 256.343 100.737C256.702 100.639 257.103 100.555 257.547 100.485C257.995 100.41 258.447 100.343 258.905 100.282C259.362 100.221 259.789 100.163 260.186 100.107L259.738 100.366C259.752 99.694 259.616 99.197 259.332 98.875C259.052 98.553 258.566 98.392 257.876 98.392C257.418 98.392 257.017 98.497 256.672 98.707C256.331 98.9123 256.091 99.2483 255.951 99.715L254.768 99.358C254.95 98.6953 255.302 98.175 255.825 97.797C256.347 97.419 257.036 97.23 257.89 97.23C258.576 97.23 259.164 97.3537 259.654 97.601C260.148 97.8437 260.503 98.2123 260.718 98.707C260.825 98.9403 260.893 99.1947 260.921 99.47C260.949 99.7407 260.963 100.025 260.963 100.324V105H259.857V103.187L260.116 103.355C259.831 103.966 259.432 104.428 258.919 104.741C258.41 105.054 257.789 105.21 257.057 105.21ZM257.246 104.167C257.694 104.167 258.081 104.088 258.408 103.929C258.739 103.766 259.005 103.553 259.206 103.292C259.406 103.026 259.537 102.737 259.598 102.424C259.668 102.191 259.705 101.932 259.71 101.647C259.719 101.358 259.724 101.136 259.724 100.982L260.158 101.171C259.752 101.227 259.353 101.281 258.961 101.332C258.569 101.383 258.198 101.439 257.848 101.5C257.498 101.556 257.183 101.624 256.903 101.703C256.697 101.768 256.504 101.852 256.322 101.955C256.144 102.058 256 102.191 255.888 102.354C255.78 102.513 255.727 102.711 255.727 102.949C255.727 103.154 255.778 103.35 255.881 103.537C255.988 103.724 256.151 103.875 256.371 103.992C256.595 104.109 256.886 104.167 257.246 104.167ZM268.166 105V101.213C268.166 100.854 268.133 100.508 268.068 100.177C268.007 99.8457 267.897 99.5493 267.739 99.288C267.585 99.022 267.375 98.812 267.109 98.658C266.847 98.504 266.516 98.427 266.115 98.427C265.802 98.427 265.517 98.4807 265.261 98.588C265.009 98.6907 264.792 98.8493 264.61 99.064C264.428 99.2787 264.285 99.5493 264.183 99.876C264.085 100.198 264.036 100.578 264.036 101.017L263.217 100.765C263.217 100.032 263.347 99.4047 263.609 98.882C263.875 98.3547 264.246 97.951 264.722 97.671C265.202 97.3863 265.767 97.244 266.416 97.244C266.906 97.244 267.323 97.321 267.669 97.475C268.014 97.629 268.301 97.8343 268.53 98.091C268.758 98.343 268.938 98.6277 269.069 98.945C269.199 99.2577 269.29 99.5773 269.342 99.904C269.398 100.226 269.426 100.532 269.426 100.821V105H268.166ZM262.776 105V97.44H263.896V99.463H264.036V105H262.776ZM274.145 105.21C273.441 105.21 272.836 105.035 272.332 104.685C271.828 104.33 271.439 103.852 271.163 103.25C270.893 102.648 270.757 101.969 270.757 101.213C270.757 100.457 270.893 99.778 271.163 99.176C271.439 98.574 271.828 98.1003 272.332 97.755C272.836 97.405 273.438 97.23 274.138 97.23C274.852 97.23 275.452 97.4027 275.937 97.748C276.423 98.0933 276.789 98.567 277.036 99.169C277.288 99.771 277.414 100.452 277.414 101.213C277.414 101.964 277.288 102.643 277.036 103.25C276.789 103.852 276.423 104.33 275.937 104.685C275.452 105.035 274.855 105.21 274.145 105.21ZM274.299 104.069C274.808 104.069 275.226 103.948 275.552 103.705C275.879 103.458 276.119 103.119 276.273 102.69C276.432 102.256 276.511 101.764 276.511 101.213C276.511 100.653 276.432 100.161 276.273 99.736C276.119 99.3067 275.881 98.973 275.559 98.735C275.237 98.4923 274.829 98.371 274.334 98.371C273.821 98.371 273.396 98.497 273.06 98.749C272.729 99.001 272.482 99.3417 272.318 99.771C272.16 100.2 272.08 100.681 272.08 101.213C272.08 101.75 272.162 102.235 272.325 102.669C272.489 103.098 272.734 103.439 273.06 103.691C273.392 103.943 273.805 104.069 274.299 104.069ZM276.511 105V99.435H276.371V94.92H277.624V105H276.511ZM45.85 123.196C45.3647 123.196 44.947 123.119 44.597 122.965C44.2517 122.811 43.9647 122.606 43.736 122.349C43.5073 122.092 43.3277 121.808 43.197 121.495C43.0663 121.182 42.973 120.863 42.917 120.536C42.8657 120.209 42.84 119.904 42.84 119.619V115.44H44.1V119.227C44.1 119.582 44.1327 119.925 44.198 120.256C44.2633 120.587 44.373 120.886 44.527 121.152C44.6857 121.418 44.8957 121.628 45.157 121.782C45.423 121.936 45.7543 122.013 46.151 122.013C46.4637 122.013 46.7483 121.959 47.005 121.852C47.2617 121.745 47.481 121.586 47.663 121.376C47.845 121.161 47.985 120.891 48.083 120.564C48.181 120.237 48.23 119.857 48.23 119.423L49.049 119.675C49.049 120.403 48.916 121.031 48.65 121.558C48.3887 122.085 48.0177 122.491 47.537 122.776C47.061 123.056 46.4987 123.196 45.85 123.196ZM48.37 123V120.977H48.23V115.44H49.483V123H48.37ZM54.2989 123.203C53.3982 123.203 52.6586 123.007 52.0799 122.615C51.5059 122.218 51.1536 121.665 51.0229 120.956L52.2969 120.753C52.3996 121.164 52.6352 121.49 53.0039 121.733C53.3726 121.971 53.8299 122.09 54.3759 122.09C54.8939 122.09 55.2999 121.983 55.5939 121.768C55.8879 121.553 56.0349 121.262 56.0349 120.893C56.0349 120.678 55.9859 120.506 55.8879 120.375C55.7899 120.24 55.5869 120.114 55.2789 119.997C54.9756 119.88 54.5159 119.74 53.8999 119.577C53.2326 119.4 52.7076 119.215 52.3249 119.024C51.9422 118.833 51.6692 118.611 51.5059 118.359C51.3426 118.107 51.2609 117.801 51.2609 117.442C51.2609 116.999 51.3822 116.611 51.6249 116.28C51.8676 115.944 52.2059 115.685 52.6399 115.503C53.0786 115.321 53.5872 115.23 54.1659 115.23C54.7399 115.23 55.2532 115.321 55.7059 115.503C56.1586 115.685 56.5226 115.944 56.7979 116.28C57.0779 116.611 57.2436 116.999 57.2949 117.442L56.0209 117.673C55.9602 117.267 55.7642 116.947 55.4329 116.714C55.1062 116.481 54.6839 116.357 54.1659 116.343C53.6759 116.324 53.2769 116.411 52.9689 116.602C52.6656 116.793 52.5139 117.052 52.5139 117.379C52.5139 117.561 52.5699 117.717 52.6819 117.848C52.7986 117.979 53.0109 118.102 53.3189 118.219C53.6316 118.336 54.0842 118.469 54.6769 118.618C55.3442 118.786 55.8692 118.97 56.2519 119.171C56.6392 119.367 56.9146 119.6 57.0779 119.871C57.2412 120.137 57.3229 120.466 57.3229 120.858C57.3229 121.586 57.0546 122.16 56.5179 122.58C55.9812 122.995 55.2416 123.203 54.2989 123.203ZM61.0157 123.21C60.4511 123.21 59.9774 123.107 59.5947 122.902C59.2167 122.692 58.9297 122.417 58.7337 122.076C58.5424 121.735 58.4467 121.362 58.4467 120.956C58.4467 120.559 58.5214 120.216 58.6707 119.927C58.8247 119.633 59.0394 119.39 59.3147 119.199C59.5901 119.003 59.9191 118.849 60.3017 118.737C60.6611 118.639 61.0624 118.555 61.5057 118.485C61.9537 118.41 62.4064 118.343 62.8637 118.282C63.3211 118.221 63.7481 118.163 64.1447 118.107L63.6967 118.366C63.7107 117.694 63.5754 117.197 63.2907 116.875C63.0107 116.553 62.5254 116.392 61.8347 116.392C61.3774 116.392 60.9761 116.497 60.6307 116.707C60.2901 116.912 60.0497 117.248 59.9097 117.715L58.7267 117.358C58.9087 116.695 59.2611 116.175 59.7837 115.797C60.3064 115.419 60.9947 115.23 61.8487 115.23C62.5347 115.23 63.1227 115.354 63.6127 115.601C64.1074 115.844 64.4621 116.212 64.6767 116.707C64.7841 116.94 64.8517 117.195 64.8797 117.47C64.9077 117.741 64.9217 118.025 64.9217 118.324V123H63.8157V121.187L64.0747 121.355C63.7901 121.966 63.3911 122.428 62.8777 122.741C62.3691 123.054 61.7484 123.21 61.0157 123.21ZM61.2047 122.167C61.6527 122.167 62.0401 122.088 62.3667 121.929C62.6981 121.766 62.9641 121.553 63.1647 121.292C63.3654 121.026 63.4961 120.737 63.5567 120.424C63.6267 120.191 63.6641 119.932 63.6687 119.647C63.6781 119.358 63.6827 119.136 63.6827 118.982L64.1167 119.171C63.7107 119.227 63.3117 119.281 62.9197 119.332C62.5277 119.383 62.1567 119.439 61.8067 119.5C61.4567 119.556 61.1417 119.624 60.8617 119.703C60.6564 119.768 60.4627 119.852 60.2807 119.955C60.1034 120.058 59.9587 120.191 59.8467 120.354C59.7394 120.513 59.6857 120.711 59.6857 120.949C59.6857 121.154 59.7371 121.35 59.8397 121.537C59.9471 121.724 60.1104 121.875 60.3297 121.992C60.5537 122.109 60.8454 122.167 61.2047 122.167ZM70.2137 123.21C69.5044 123.21 68.9071 123.035 68.4217 122.685C67.9364 122.33 67.5677 121.852 67.3157 121.25C67.0684 120.643 66.9447 119.964 66.9447 119.213C66.9447 118.452 67.0684 117.771 67.3157 117.169C67.5677 116.567 67.9364 116.093 68.4217 115.748C68.9117 115.403 69.5114 115.23 70.2207 115.23C70.9207 115.23 71.5227 115.405 72.0267 115.755C72.5354 116.1 72.9251 116.574 73.1957 117.176C73.4664 117.778 73.6017 118.457 73.6017 119.213C73.6017 119.969 73.4664 120.648 73.1957 121.25C72.9251 121.852 72.5354 122.33 72.0267 122.685C71.5227 123.035 70.9184 123.21 70.2137 123.21ZM66.7347 123V112.92H67.9877V117.435H67.8477V123H66.7347ZM70.0597 122.069C70.5591 122.069 70.9721 121.943 71.2987 121.691C71.6254 121.439 71.8704 121.098 72.0337 120.669C72.1971 120.235 72.2787 119.75 72.2787 119.213C72.2787 118.681 72.1971 118.2 72.0337 117.771C71.8751 117.342 71.6277 117.001 71.2917 116.749C70.9604 116.497 70.5381 116.371 70.0247 116.371C69.5347 116.371 69.1287 116.492 68.8067 116.735C68.4847 116.973 68.2444 117.307 68.0857 117.736C67.9271 118.161 67.8477 118.653 67.8477 119.213C67.8477 119.764 67.9247 120.256 68.0787 120.69C68.2374 121.119 68.4801 121.458 68.8067 121.705C69.1334 121.948 69.5511 122.069 70.0597 122.069ZM75.2763 114.103V112.815H76.5223V114.103H75.2763ZM75.2763 123V115.44H76.5223V123H75.2763ZM78.7626 123V112.71H80.0086V123H78.7626ZM82.2489 114.103V112.815H83.4949V114.103H82.2489ZM82.2489 123V115.44H83.4949V123H82.2489ZM89.8162 123C89.3682 123.089 88.9249 123.124 88.4862 123.105C88.0522 123.091 87.6649 123.005 87.3242 122.846C86.9836 122.683 86.7246 122.431 86.5472 122.09C86.3979 121.791 86.3162 121.49 86.3022 121.187C86.2929 120.879 86.2882 120.531 86.2882 120.144V113.34H87.5342V120.088C87.5342 120.396 87.5366 120.66 87.5412 120.879C87.5506 121.098 87.5996 121.287 87.6882 121.446C87.8562 121.745 88.1222 121.92 88.4862 121.971C88.8549 122.022 89.2982 122.008 89.8162 121.929V123ZM84.7552 116.469V115.44H89.8162V116.469H84.7552ZM92.196 126.36L93.659 122.384L93.68 123.56L90.376 115.44H91.685L94.275 121.971H93.827L96.256 115.44H97.523L93.407 126.36H92.196ZM97.7821 123V121.628H99.1541V123H97.7821Z" fill="#3D3D3D"/>
<path d="M59.6667 37H46.7495C45.535 37 44.5954 35.9238 44.8663 34.7398C45.4654 32.1214 46.4558 29.6193 47.8029 27.3329C49.5333 24.3962 51.8142 21.8798 54.5 19.9444L57.615 17.699C58.4656 17.0859 58.6982 15.9199 58.1481 15.0273L57.4105 13.8304C56.8012 12.8416 55.4805 12.5781 54.5383 13.2573L51.6583 15.3333C47.766 18.1224 44.5741 21.9016 42.3659 26.3353C40.1577 30.7691 39.0016 35.7205 39 40.75V56.4444C39 57.9179 39.5443 59.3309 40.5133 60.3728C41.4822 61.4147 42.7964 62 44.1667 62H59.6667C61.037 62 62.3511 61.4147 63.32 60.3728C64.289 59.3309 64.8333 57.9179 64.8333 56.4444V42.5556C64.8333 41.0821 64.289 39.6691 63.32 38.6272C62.3511 37.5853 61.037 37 59.6667 37ZM95.8333 37H82.9162C81.7016 37 80.7621 35.9238 81.033 34.7398C81.6321 32.1214 82.6224 29.6193 83.9696 27.3329C85.6999 24.3962 87.9808 21.8798 90.6667 19.9444L93.7878 17.6946C94.6358 17.0833 94.87 15.922 94.3252 15.0298L93.5972 13.8376C92.9912 12.8454 91.6699 12.5771 90.725 13.2545L87.825 15.3333C83.9326 18.1224 80.7407 21.9016 78.5326 26.3353C76.3244 30.7691 75.1682 35.7205 75.1667 40.75V56.4444C75.1667 57.9179 75.711 59.3309 76.6799 60.3728C77.6489 61.4147 78.963 62 80.3333 62H95.8333C97.2036 62 98.5178 61.4147 99.4867 60.3728C100.456 59.3309 101 57.9179 101 56.4444V42.5556C101 41.0821 100.456 39.6691 99.4867 38.6272C98.5178 37.5853 97.2036 37 95.8333 37Z" fill="#00A4F4"/>
</g>
<defs>
<filter id="filter0_d_76_417" x="0.268294" y="0.391622" width="343.707" height="168.828" filterUnits="userSpaceOnUse" color-interpolation-filters="sRGB">
<feFlood flood-opacity="0" result="BackgroundImageFix"/>
<feColorMatrix in="SourceAlpha" type="matrix" values="0 0 0 0 0 0 0 0 0 0 0 0 0 0 0 0 0 0 127 0" result="hardAlpha"/>
<feOffset dx="3.12195" dy="9.36585"/>
<feGaussianBlur stdDeviation="10.9268"/>
<feComposite in2="hardAlpha" operator="out"/>
<feColorMatrix type="matrix" values="0 0 0 0 0 0 0 0 0 0 0 0 0 0 0 0 0 0 0.06 0"/>
<feBlend mode="normal" in2="BackgroundImageFix" result="effect1_dropShadow_76_417"/>
<feBlend mode="normal" in="SourceGraphic" in2="effect1_dropShadow_76_417" result="shape"/>
</filter>
<linearGradient id="paint0_linear_76_417" x1="19" y1="58.381" x2="309.692" y2="147.837" gradientUnits="userSpaceOnUse">
<stop stop-color="#FBFDFF"/>
<stop offset="1" stop-color="#E9F6FF"/>
</linearGradient>
<linearGradient id="paint1_linear_76_417" x1="19" y1="58.25" x2="297.471" y2="163.667" gradientUnits="userSpaceOnUse">
<stop stop-color="#95DDFF"/>
<stop offset="1" stop-color="#C5ECFF"/>
</linearGradient>
</defs>
</svg>
