<svg xmlns="http://www.w3.org/2000/svg" xmlns:xlink="http://www.w3.org/1999/xlink" version="1.1" x="0px" y="0px" viewBox="0 0 500 500" style="enable-background:new 0 0 500 500;" xml:space="preserve">
<g id="BACKGROUND">
</g>

    <g id="OBJECTS">
	<g>
		<defs>
			<circle id="SVGID_1_" cx="250.532" cy="244.517" r="212.255"/>
		</defs>
        <clipPath id="SVGID_00000098939635323646056120000001202534016820490377_">
			<use xlink:href="#SVGID_1_" style="overflow:visible;"/>
		</clipPath>
        <g style="clip-path:url(#SVGID_00000098939635323646056120000001202534016820490377_);">
			<circle style="fill:#3BBEEF;" cx="250.532" cy="244.517" r="212.255"/>
            <g>
				<g>
					<path style="fill:#FFFFFF;" d="M250.032,225.464c0,0.11,0,0.221,0,0.331c0,0.643,1,0.645,1,0c0-0.11,0-0.221,0-0.331       C251.032,224.821,250.032,224.82,250.032,225.464c0,0.11,0,0.221,0,0.331c0,0.643,1,0.645,1,0c0-0.11,0-0.221,0-0.331       C251.032,224.821,250.032,224.82,250.032,225.464L250.032,225.464z"/>
				</g>
			</g>
            <g>
				<g>
					<path style="fill:#38B6B0;" d="M297.531,305.652h4.518v-50.083c0-11.43-6.715-21.89-17.108-26.648       c-3.855-1.766-7.96-2.661-12.202-2.661h-42.403c-4.242,0-8.348,0.895-12.203,2.661c-10.392,4.758-17.106,15.218-17.106,26.648       v15.105h4.518v-15.105c0-9.668,5.68-18.517,14.47-22.541c3.26-1.493,6.732-2.251,10.321-2.251h42.403       c3.588,0,7.06,0.757,10.321,2.251c8.791,4.025,14.471,12.873,14.471,22.541V305.652z"/>
				</g>
                <g>
					<path style="fill:#634E42;" d="M312.179,75.362c-11.539-13.27-25.8-21.554-45.445-17.975       c-10.82,1.971-16.979,9.382-18.573,16.49c-0.981,4.376,2.467,8.71,6.532,13.631c18.433,22.313,20.659,45.568,22.807,73.538       c0.89,11.592,1.774,24.442,6.564,35.212c4.763,10.708,14.365,19.094,24.356,24.957c0.825,0.484,1.785-0.312,1.573-1.206       c-8.641-36.412,17.435-71.579,16.278-108.09C325.827,97.91,320.615,85.063,312.179,75.362z"/>
                    <path style="fill:#FFFFFF;" d="M268.459,73.267c1.398-2.39-3.066-4.094-4.649-4.586c-2.79-0.868-23.021-2.674-19.793,4.171       c-0.114-0.243-1.334,2.074-1.319,2.562c0.169,5.373,9.789,5.028,13.235,4.807c2.897-0.186,5.786-0.496,8.657-0.931       c2.209-0.334,5.067-1.367,4.799-4.128C269.362,74.893,268.508,73.184,268.459,73.267z"/>
                    <g>
						<g>
							<g>
								<g>
									<path style="fill:#FDDEAC;" d="M300.009,153.336c-0.669-0.301-1.473-0.366-2.437-0.09           c-0.844,0.241-1.594,0.742-2.258,1.315c-7.018,6.054-3.327,17.89-6.319,25.788c-0.217,0.574,0.433,0.894,0.878,0.682           c0.11-0.014,0.22-0.048,0.323-0.13c6.287-5.009,13.034-11.429,12.884-20.144           C303.038,158.389,302.365,154.397,300.009,153.336z"/>
                                    <path style="fill:#FDDEAC;" d="M202.251,153.336c0.669-0.301,1.473-0.366,2.437-0.09c0.844,0.241,1.593,0.742,2.258,1.315           c7.018,6.054,3.327,17.89,6.32,25.788c0.217,0.574-0.433,0.894-0.878,0.682c-0.11-0.014-0.22-0.048-0.323-0.13           c-6.287-5.009-13.034-11.429-12.884-20.144C199.222,158.389,199.895,154.397,202.251,153.336z"/>
								</g>
                                <g>
									<g>
										<g>
											<path style="fill:#FFE4B8;" d="M333.309,259.353c-0.388-0.898-0.853-1.49-1.605-2.14             c-2.465-2.128-5.803-5.503-8.982-6.435c-2.715-0.797-5.479-1.427-8.272-1.883c-8.565-1.401-6.536-0.973-14.942-3.314             c-0.101-0.028-0.202-0.057-0.303-0.085c-16.335-4.651-27.295-20.115-26.663-37.088c0.178-4.781,0.659-9.686,1.671-13.948             h-23.331h-0.126h-23.331c1.012,4.262,1.493,9.167,1.671,13.948c0.632,16.973-10.328,32.437-26.663,37.088             c-0.101,0.029-0.202,0.057-0.303,0.085c-8.406,2.342-6.377,1.913-14.942,3.314c-2.793,0.457-5.556,1.087-8.272,1.883             c-3.179,0.933-7.362,2.176-9.827,4.304c-0.753,0.65-1.435,1.65-1.823,2.548c-7.421,17.182-11.519,98.48-13.398,136.076             c-0.453,9.071,6.779,16.667,15.861,16.667l81.026,0h0.126h65.765c17.405,0,31.252-14.585,30.345-31.967             C344.854,337.455,339.835,274.466,333.309,259.353z"/>
                                            <path style="fill:#FDDCA6;" d="M195.192,252.125c7.864,0.922,16.814-0.96,23.754-4.708             c7.306-3.947,12.453-10.199,17.113-16.902c1.419-2.041,2.902-4.123,4.992-5.532c2.463-1.66,5.367-2.042,8.248-2.372             c8.083-0.926,17.34-1.691,23.609-7.454c-0.32-2.208-0.452-4.464-0.367-6.75c0.178-4.781,0.659-9.686,1.671-13.948             h-46.788c1.012,4.262,1.493,9.167,1.671,13.948c0.632,16.973-10.328,32.437-26.663,37.088             c-0.101,0.029-0.202,0.057-0.303,0.085c-8.411,2.343-6.375,1.913-14.956,3.317c-0.448,0.073-0.893,0.16-1.339,0.242             C188.723,250.65,191.82,251.73,195.192,252.125z"/>
                                            <path style="fill:#FDDCA6;" d="M249.976,241.366c-0.829-0.765-7.929-3.697-6.903-2.175             c1.446,2.145,4.24,5.56,7.159,5.313c2.938-0.249,5.491-3.79,6.672-6.184             C257.681,236.743,250.527,240.991,249.976,241.366z"/>
										</g>
                                        <g>
											<path style="fill:#FFE4B8;" d="M295.572,124.241h-44.079h-1.144h-44.079c0,0-0.977,45.862,8.832,64.266             c9.211,17.282,28.148,25.806,35.247,26.552v0.055c0.177,0.006,0.369,0.002,0.572-0.008             c0.203,0.01,0.395,0.013,0.572,0.008v-0.055c7.099-0.746,26.036-9.271,35.247-26.552             C296.55,170.103,295.572,124.241,295.572,124.241z"/>
                                            <g>
												<g>
													<path style="fill:#422918;" d="M285.921,153.093c-3.173,1.299-5.86-0.318-8.867-1.342               c-2.745-0.935-13.109-1.214-12.45,3.599c0.076,0.553-0.77,0.792-0.847,0.233c-0.149-1.087-0.529-1.915,0.143-2.741               c1.1-1.353,4.927-2.163,6.504-2.441c1.504-0.265,3.042-0.308,4.548-0.084c0.025-0.024,0.043-0.051,0.076-0.072               c0.465-0.293,0.701-0.712,0.777-1.249c0.079-0.557,0.925-0.32,0.847,0.233c-0.072,0.51-0.301,0.946-0.633,1.306               c0.104,0.025,0.21,0.036,0.314,0.064c0.489,0.131,0.968,0.296,1.443,0.473c0.027-0.017,0.048-0.038,0.081-0.051               c0.708-0.271,1.297-0.739,1.728-1.362c0.319-0.462,1.08-0.023,0.758,0.443c-0.403,0.584-0.901,1.041-1.486,1.388               c0.384,0.153,0.767,0.304,1.15,0.447c0.007,0,0.012-0.004,0.02-0.004c0.054,0,0.098,0.014,0.141,0.029               c1.212-0.292,2.291-0.844,3.221-1.681c0.419-0.377,1.042,0.242,0.621,0.621c-0.735,0.662-1.564,1.171-2.463,1.534               c1.325,0.34,2.68,0.41,4.142-0.188C286.21,152.032,286.438,152.882,285.921,153.093z"/>
                                                    <path style="fill:#422918;" d="M237.869,155.35c0.666-4.859-9.697-4.524-12.45-3.599               c-3.021,1.015-5.679,2.647-8.867,1.342c-0.516-0.211-0.29-1.061,0.233-0.847c1.452,0.594,2.808,0.523,4.137,0.186               c-0.897-0.363-1.724-0.871-2.458-1.532c-0.421-0.379,0.202-0.998,0.621-0.621c0.93,0.838,2.009,1.389,3.221,1.681               c0.043-0.014,0.087-0.029,0.141-0.029c0.011,0,0.018,0.005,0.028,0.006c0.383-0.142,0.766-0.292,1.15-0.443               c-0.589-0.348-1.089-0.807-1.494-1.394c-0.322-0.466,0.439-0.905,0.758-0.443c0.431,0.623,1.019,1.091,1.728,1.362               c0.037,0.014,0.062,0.038,0.092,0.058c0.316-0.116,0.633-0.228,0.954-0.327c0.267-0.083,0.54-0.131,0.809-0.195               c-0.342-0.363-0.577-0.807-0.651-1.327c-0.078-0.553,0.768-0.791,0.846-0.233c0.076,0.537,0.313,0.956,0.777,1.249               c0.042,0.026,0.068,0.06,0.097,0.092c1.496-0.225,3.016-0.202,4.527,0.064c1.64,0.289,5.283,1.062,6.459,2.407               c0.74,0.846,0.349,1.596,0.187,2.775C238.639,156.141,237.793,155.903,237.869,155.35z"/>
												</g>
                                                <g>
													<path style="fill:#F7D296;" d="M255.527,174.072c-0.905-0.294-1.665-0.504-2.573-0.162               c-0.597,0.224-1.042,0.793-1.599,1.083c-0.574,0.298-1.111,0.442-1.634,0.489c-0.523-0.048-1.06-0.191-1.634-0.489               c-0.557-0.29-1.003-0.858-1.599-1.083c-0.908-0.341-1.668-0.131-2.573,0.162c-0.713,0.232-0.408,1.362,0.311,1.129               c1.903-0.618,3.534,1.257,5.43,1.455c0.021,0.002,0.044,0,0.065,0.001c0.021-0.002,0.044,0.001,0.065-0.001               c1.896-0.199,3.527-2.073,5.43-1.455C255.935,175.434,256.24,174.304,255.527,174.072z"/>
                                                    <path style="fill:#BB1844;" d="M237.743,189.667c-0.683-0.231,3.016,10.846,13.274,10.798               c10.41-0.145,13.519-11.195,12.883-10.778C265.494,188.178,236.237,188.226,237.743,189.667z"/>
                                                    <path style="fill:#FFFFFF;" d="M238.081,191.251h25.507c0.387-1.021,0.475-1.67,0.312-1.564               c1.593-1.509-27.663-1.461-26.158-0.02C237.573,189.609,237.675,190.253,238.081,191.251z"/>
                                                    <path style="fill:#E62453;" d="M254.371,193.949c-4.842-0.486-9.783-0.648-14.547,0.418               c2.059,2.924,5.667,6.124,11.193,6.098c5.048-0.07,8.367-2.705,10.387-5.353               C259.111,194.516,256.726,194.185,254.371,193.949z"/>
												</g>
                                                <g>
													<g>
														<path style="fill:#634E42;" d="M262.323,145.636c1.891-2.011,4.513-3.232,7.214-3.802                c2.701-0.57,5.495-0.529,8.248-0.312c1.736,0.137,3.488,0.343,5.211,0.085c1.722-0.257,3.451-1.05,4.408-2.505                l0.251-0.362c-1.09,1.358-2.885,1.986-4.623,2.081c-1.739,0.095-3.464-0.274-5.18-0.573                c-2.72-0.474-5.498-0.776-8.241-0.462c-2.743,0.315-5.467,1.285-7.538,3.111L262.323,145.636z"/>
													</g>
                                                    <g>
														<path style="fill:#634E42;" d="M239.52,145.636c-1.891-2.011-4.513-3.232-7.214-3.802                c-2.701-0.57-5.495-0.529-8.248-0.312c-1.736,0.137-3.488,0.343-5.21,0.085c-1.722-0.257-3.451-1.05-4.408-2.505                l-0.251-0.362c1.089,1.358,2.885,1.986,4.623,2.081c1.739,0.095,3.464-0.274,5.18-0.573                c2.72-0.474,5.498-0.776,8.241-0.462c2.743,0.315,5.467,1.285,7.538,3.111L239.52,145.636z"/>
													</g>
												</g>
											</g>
										</g>
                                        <g>
											<g>
												<path style="fill:#634E42;" d="M301.167,134.747h-18.434l-0.586-6.755l-0.292,6.755h-60.577l-0.975-11.316l-1.38,11.316              h-18.248v-10.624c0-27.75,22.496-50.246,50.246-50.246h0c27.75,0,50.246,22.496,50.246,50.246V134.747z"/>
                                                <path style="fill:#6E574A;" d="M211.506,98.47c-3.335,5.15-4.589,10.823-5.456,16.671              c7.132-13.729,14.936-18.509,14.936-18.509s-4.267,4.777-4.725,12.34c2.105-6.373,8.432-11.657,8.432-11.657              s-1.338,3.638-1.366,5.17c1.08-2.121,9.267-21.655,21.804-26.533C240.792,76.158,223.815,79.464,211.506,98.47z"/>
                                                <path style="fill:#6E574A;" d="M291.571,98.47c3.335,5.15,4.59,10.823,5.456,16.671              c-7.132-13.729-14.936-18.509-14.936-18.509s4.267,4.777,4.725,12.34c-2.105-6.373-8.432-11.657-8.432-11.657              s1.338,3.638,1.366,5.17c-1.08-2.121-9.267-21.655-21.804-26.533C262.285,76.158,279.261,79.464,291.571,98.47z"/>
											</g>
										</g>
									</g>
                                    <g>
										<ellipse style="opacity:0.28;fill:#FFE4B8;" cx="224.973" cy="169.73" rx="12.354" ry="5.465"/>
                                        <path style="opacity:0.28;fill:#FFE4B8;" d="M289.225,169.73c0,3.018-5.531,5.465-12.354,5.465            c-6.823,0-12.354-2.447-12.354-5.465s5.531-5.465,12.354-5.465C283.694,164.266,289.225,166.712,289.225,169.73z"/>
									</g>
								</g>
							</g>
						</g>
                        <g>
							<path style="fill:#FFFFFF;" d="M206.987,173.663c-5.609,0-5.619,8.718,0,8.718         C212.596,182.38,212.605,173.663,206.987,173.663z"/>
                            <path style="fill:#FFFFFF;" d="M294.931,173.663c-5.609,0-5.619,8.718,0,8.718C300.54,182.38,300.55,173.663,294.931,173.663         z"/>
						</g>
					</g>
				</g>
                <g>
					<g>
						<path style="fill:#82C8C0;" d="M300.846,405.789h26.752c10.105,0,18.179-8.412,17.753-18.508        c-2.319-54.951-5.858-117.791-10.98-129.65c-0.388-0.899-1.07-1.899-1.823-2.549c-2.465-2.128-6.649-3.372-9.828-4.304        c-2.715-0.797-5.479-1.427-8.271-1.883c-8.565-1.401-6.536-0.973-14.942-3.314c-0.101-0.028-0.202-0.057-0.303-0.085        c-2.143-0.61-4.191-1.411-6.135-2.372l-42.838,45.304l-41.664-45.304c-1.944,0.961-3.992,1.762-6.135,2.372        c-0.101,0.029-0.202,0.057-0.303,0.085c-8.406,2.342-6.377,1.913-14.942,3.314c-2.792,0.457-5.556,1.087-8.271,1.883        c-3.179,0.933-7.363,2.176-9.828,4.304c-0.753,0.65-1.435,1.65-1.823,2.549c-7.638,17.684-11.755,103.284-13.557,139.255        c-0.368,7.343,5.487,13.488,12.839,13.488h41.683l0,62.251h92.615V405.789z"/>
                        <g>
							<path style="fill:#5CBDB4;" d="M299.258,245.51c-0.018-0.005-0.036-0.01-0.054-0.015c-2.143-0.61-4.191-1.411-6.135-2.372         l-42.838,45.304l-41.664-45.304c-1.944,0.961-3.992,1.762-6.135,2.372c-0.072,0.021-0.145,0.041-0.217,0.061l47.825,52.004         L299.258,245.51z"/>
						</g>
					</g>
                    <g>
						<g>
							<path style="fill:#F5F5F5;" d="M208.812,241.808c0,0-20.6,5.12-30.485,8.027c-3.683,1.083-7.484,2.317-9.938,4.437         c-0.837,0.723-1.623,1.819-2.105,2.934c-7.537,17.451-11.574,98.224-13.514,137.041c-0.004,0.086-0.008,0.172-0.013,0.258         c-0.462,9.211,6.877,16.938,16.1,16.938h14.806l-2.229,61.181h37.827V311.587L208.812,241.808z"/>
                            <path style="fill:#ECECEC;" d="M169.214,377.401c-5.028,0.082-9.694,2.548-12.373,8.536c-0.08,0.181-0.157,0.363-0.231,0.546         c-2.984,7.403,0.168,18.531,8.473,22.235c7.629,3.403,18.959,1.526,23.465-5.33C196.3,391.593,181.651,377.2,169.214,377.401         z"/>
                            <polygon style="fill:#FFFFFF;" points="208.812,241.808 202.432,243.413 212.619,315.201 211.754,472.625 219.261,472.625          219.261,311.587        "/>
						</g>
                        <g>
							<path style="fill:#F5F5F5;" d="M292.252,241.808c0,0,20.6,5.12,30.485,8.027c3.683,1.083,7.484,2.317,9.938,4.437         c0.837,0.723,1.624,1.819,2.105,2.934c7.537,17.451,11.574,98.224,13.514,137.041c0.004,0.086,0.009,0.172,0.013,0.258         c0.462,9.211-6.877,16.938-16.1,16.938h-14.806l2.229,61.181h-37.828V311.587L292.252,241.808z"/>
                            <path style="fill:#ECECEC;" d="M331.851,377.401c5.028,0.082,9.694,2.548,12.373,8.536c0.08,0.181,0.157,0.363,0.231,0.546         c2.984,7.403-0.168,18.531-8.473,22.235c-7.629,3.403-18.959,1.526-23.465-5.33         C304.764,391.593,319.413,377.2,331.851,377.401z"/>
                            <polygon style="fill:#FFFFFF;" points="292.252,241.808 298.632,243.413 288.446,315.201 289.31,472.625 281.804,472.625          281.804,311.587        "/>
						</g>
					</g>
				</g>
                <g>
					<g>
						<path style="fill:#D9D9D9;" d="M182.518,303.738v33.066c0,1.761,2.737,1.764,2.737,0v-33.066        C185.255,301.977,182.518,301.974,182.518,303.738z"/>
                        <path style="fill:#C6C6C5;" d="M182.518,331.845v4.96c0,1.761,2.737,1.764,2.737,0v-4.96H182.518z"/>
                        <g>
							<path style="fill:#9C9B9B;" d="M189.396,336.063c-0.375-1.442-2.031-2.198-3.411-2.227c-1.813-0.038-3.091,1.92-2.632,3.625         c0.482,1.791,2.689,2.708,4.344,1.958C188.933,338.857,189.748,337.419,189.396,336.063z"/>
                            <path style="fill:#706F6E;" d="M188.986,336.561c-0.16-0.807-0.866-1.23-1.455-1.247c-0.773-0.021-1.318,1.074-1.123,2.029         c0.205,1.003,1.147,1.516,1.853,1.096C188.788,338.126,189.136,337.321,188.986,336.561z"/>
						</g>
					</g>
                    <g>
						<g>
							<g>
								<path style="fill:#38B6B0;" d="M218.223,228.831c0.325-0.149,0.653-0.285,0.98-0.42v4.981          c-8.27,4.205-13.569,12.758-13.569,22.088v15.105h-4.518v-15.105C201.116,244.049,207.831,233.589,218.223,228.831z"/>
                                <path style="fill:#38B6B0;" d="M283.297,228.106c0.583,0.223,1.162,0.463,1.734,0.725          c10.392,4.758,17.107,15.218,17.107,26.648v65.365h-4.518v-65.365c0-9.613-5.618-18.411-14.324-22.467V228.106z"/>
                                <rect x="297.621" y="310.544" style="fill:#D9D9D9;" width="4.518" height="10.3"/>
							</g>
                            <g>
								<path style="fill:#38B6B0;" d="M220.829,307.308v-16.17c0-9.616-7.823-17.439-17.438-17.439          c-9.616,0-17.439,7.823-17.439,17.439v16.17h-4.518v-16.17c0-12.107,9.85-21.957,21.957-21.957          c12.107,0,21.956,9.85,21.956,21.957v16.17H220.829z"/>
							</g>
						</g>
                        <g>

								<ellipse transform="matrix(0.7071 -0.7071 0.7071 0.7071 -141.5144 307.1259)" style="fill:#B1B1B1;" cx="299.977" cy="324.386" rx="10.498" ry="10.498"/>
                            <circle style="fill:#C6C6C5;" cx="299.977" cy="324.386" r="7.62"/>
                            <path style="fill:#D9D9D9;" d="M294.285,324.386c0-3.143,2.548-5.691,5.691-5.691c3.143,0,5.691,2.548,5.691,5.691         c0,3.143-2.548,5.691-5.691,5.691C296.833,330.077,294.285,327.529,294.285,324.386z"/>
                            <g>
								<path style="fill:#ECECEC;" d="M300.964,320.253c1.194,0,2.283,0.413,3.166,1.083c-0.961-1.267-2.467-2.097-4.18-2.097          c-2.906,0-5.263,2.356-5.263,5.263c0,1.713,0.831,3.219,2.097,4.18c-0.67-0.883-1.083-1.971-1.083-3.165          C295.701,322.609,298.057,320.253,300.964,320.253z"/>
							</g>
						</g>
					</g>
				</g>
                <g>
					<g>
						<g>
							<polygon style="fill:#B17F49;" points="299.018,390.8 292.34,271.963 205.909,271.963 204.058,272.889 210.737,391.726          297.168,391.726        "/>
                            <polygon style="fill:#C99D66;" points="297.168,391.726 210.737,391.726 204.058,272.889 290.489,272.889        "/>
						</g>
                        <polygon style="fill:#B17F49;" points="261.471,283.848 235.848,283.848 235.21,276.779 260.832,276.779       "/>
					</g>
                    <g>
						<g>
							<path style="fill:#FFE4B8;" d="M248.905,323.244c-1.558-1.03-3.171-0.216-4.655,0.537c-1.916,0.977-3.68,2.228-5.39,3.525         c-1.867,1.415-3.601,3.045-5.573,4.314c-2.069,1.332-4.427,1.912-6.801,2.43c0.881-1.666,2.539-2.629,4.149-3.523         c1.683-0.939,3.254-1.879,4.508-3.374c0.691-0.826,1.303-1.716,1.997-2.542c0.726-0.861,1.562-1.519,2.459-2.19         c0.718-0.537,1.399-1.145,1.684-2.024c0.239-0.734,0.132-1.577-0.474-2.102c-1.258-1.09-3.302-0.38-4.546,0.347         c-1.685,0.987-2.945,2.519-4.419,3.768c-1.942,1.645-4.344,2.554-6.677,3.485c-2.251,0.899-4.421,1.973-6.648,2.925         c-2.355,1.005-4.818,1.707-7.02,3.047c-0.398,0.243-0.781,0.505-1.159,0.776c-0.042-0.095-0.558-0.06-0.769-0.318         c-1.605-1.964-2.463-4.465-2.564-6.983c-0.436,0.397-0.947,0.924-1.392,1.305c-0.964,0.824-1.697,1.737-2.279,2.87         c-0.626,1.22-1.148,2.478-1.897,3.638c-0.754,1.169-1.622,2.271-2.324,3.479c-0.599,1.034-0.927,2.166-1.051,3.351         c-0.125,1.204-0.057,2.417-0.054,3.625c0.006,1.456-0.169,2.827-0.463,4.25c-0.261,1.274-0.211,2.597,0.068,3.864         c0.308,1.413,0.796,2.961,0.528,4.422c-0.17,0.933-0.763,1.844-1.179,2.691c-0.481,0.971-0.961,1.944-1.454,2.908         c-0.466,0.912-0.94,1.822-1.445,2.711c-0.005,0.008-0.009,0.017-0.014,0.025c-0.958,1.66-2.334,3.04-3.933,4.097         c-3.187,2.106-12.317,5.71-21.654,9.123c-14.577,5.328-13.56,26.385,1.497,30.147c0.176,0.044,0.353,0.087,0.531,0.128         c22.251,1.697,43.982-43.618,46.503-46.945c3.157-4.167,7.564-5.12,11.551-8.061c1.02-0.752,2.047-1.526,2.999-2.36         c0.123-0.109,0.253-0.274,0.391-0.355c0.201-0.119,0.488-0.143,0.722-0.198c0.831-0.197,1.665-0.395,2.495-0.592         c0.75-0.18,1.503-0.359,2.256-0.537c0.665-0.157,1.461-0.238,2.077-0.546c0.452-0.226,0.7-0.66,0.954-1.071         c0.364-0.589,0.723-1.179,1.065-1.781c0.629-1.112,1.197-2.27,1.564-3.498c0.4-1.343,0.447-2.702,0.471-4.094         c0.029-1.499,0.129-2.994,0.305-4.485c0.008-0.067-0.033-0.103-0.083-0.115c1.025-1.91,2.092-3.797,3.206-5.658         c0.041-0.068,0.011-0.133-0.045-0.164c0.104-0.065,0.206-0.129,0.313-0.186c0.63-0.345,1.351-0.556,1.914-1.015         C250.151,325.5,249.92,323.915,248.905,323.244z"/>
                            <path style="fill:#FDDCA6;" d="M216.465,358.457c-5.226,3.072-7.76,8.404-10.079,13.743         c-1.718,3.954-15.504,30.81-31.107,26.633c-3.654-0.978-4.984-4.944-5.094-8.348c-0.141-4.353,1.698-7.158,3.833-10.738         c0.448-0.751,2.23-3.436,2.513-5.076c-2.574,0.998-5.309,2.022-8.067,3.03c-14.577,5.328-13.56,26.385,1.497,30.147         c0.176,0.044,0.353,0.087,0.531,0.128c22.251,1.697,43.982-43.618,46.503-46.945c1.909-2.519,4.275-3.864,6.729-5.183         C221.19,356.334,218.736,357.122,216.465,358.457z"/>
                            <path style="fill:#FDDCA6;" d="M232.864,344.541c0.213,0.249,1.899-0.139,2.106-0.171c1.263-0.196,2.855-0.339,3.962-1.028         c1.785-1.11,2.683-3.436,3.492-5.274c0.353-0.801,1.141-4.21,1.24-5.102c-0.731,1.368-1.444,2.747-2.126,4.141         c-0.716,1.463-1.366,2.957-2.826,3.818c-0.307,0.181-0.628,0.33-0.954,0.469c-0.046,0.019-0.091,0.041-0.137,0.06         c-0.309,0.127-0.623,0.246-0.938,0.363c-0.355,0.132-0.707,0.268-1.053,0.418c-0.035,0.015-0.069,0.031-0.103,0.047         c-0.323,0.145-0.639,0.304-0.939,0.496c-0.008,0.005-0.015,0.011-0.023,0.016         C234.547,342.933,232.493,344.107,232.864,344.541z"/>
                            <path style="fill:#FDDCA6;" d="M232.135,339.089c-0.465,0.314-2.02,0.775-2.16,1.351c-0.327,1.346,2.193,0.253,2.611,0.051         c1.809-0.875,3.653-1.76,5.203-3.054c2.056-1.717,3.733-3.837,5.367-5.944c1.124-1.45,2.169-3.182,3.561-4.451         c0.02-0.034,0.039-0.068,0.059-0.101c-0.295,0.208-0.578,0.441-0.854,0.679c-0.276,0.239-0.545,0.483-0.811,0.717         c-0.356,0.312-0.721,0.614-1.09,0.911c-0.738,0.594-1.493,1.17-2.226,1.769c-0.367,0.3-0.728,0.605-1.08,0.923         c-0.318,0.287-0.622,0.587-0.917,0.896c-0.589,0.618-1.14,1.273-1.682,1.934c-0.271,0.331-0.54,0.664-0.81,0.994         c-0.611,0.751-1.313,1.272-2.11,1.732c-0.266,0.153-0.542,0.3-0.829,0.446c-0.29,0.147-0.588,0.297-0.888,0.444         c-0.066,0.033-0.131,0.064-0.198,0.096c-0.327,0.157-0.657,0.305-0.993,0.433c-0.009,0.003-0.017,0.008-0.026,0.011         C232.242,338.986,232.201,339.044,232.135,339.089z"/>
						</g>
                        <g>
							<path style="fill:#FFE4B8;" d="M264.803,318.642c1.685,0.987,2.945,2.519,4.419,3.767c1.943,1.645,4.344,2.554,6.677,3.485         c2.251,0.899,4.421,1.973,6.648,2.925c2.355,1.005,4.818,1.707,7.02,3.047c0.398,0.243,0.781,0.505,1.159,0.776         c0.672-1.511-0.462-2.981-1.418-4.073c-0.743-0.848-1.425-1.64-1.801-2.722c-0.351-1.019-0.45-2.117-0.378-3.187         c0.065-0.984,0.194-2.186,0.77-3.018c0.44-0.636,1.189-1.13,1.982-1.117c0.918,0.018,1.462,0.729,1.755,1.522         c0.471,1.277,0.483,2.694,1.165,3.898c0.633,1.118,1.692,1.88,2.649,2.701c0.964,0.824,1.697,1.737,2.279,2.87         c0.626,1.22,1.148,2.478,1.897,3.638c0.754,1.169,1.622,2.271,2.324,3.479c0.599,1.034,0.927,2.166,1.051,3.351         c0.125,1.204,0.057,2.417,0.054,3.625c-0.006,1.456,0.169,2.827,0.462,4.25c0.261,1.275,0.211,2.597-0.068,3.865         c-0.308,1.413-0.796,2.961-0.528,4.422c0.169,0.933,0.763,1.844,1.179,2.691c0.481,0.971,0.961,1.944,1.454,2.908         c0.466,0.912,0.94,1.822,1.445,2.711c0.005,0.008,0.009,0.017,0.014,0.025c0.958,1.66,2.334,3.04,3.933,4.097         c3.187,2.106,12.317,5.71,21.654,9.123c14.577,5.328,13.56,26.385-1.497,30.148c-0.176,0.044-0.353,0.087-0.531,0.128         c-22.251,1.697-43.982-43.618-46.503-46.945c-3.157-4.167-7.564-5.12-11.551-8.061c-1.02-0.752-2.047-1.526-2.999-2.36         c-0.124-0.109-0.253-0.274-0.391-0.355c-0.201-0.119-0.488-0.143-0.722-0.198c-0.831-0.197-1.664-0.395-2.495-0.592         c-0.75-0.18-1.503-0.359-2.256-0.537c-0.665-0.157-1.461-0.238-2.077-0.546c-0.452-0.226-0.7-0.66-0.954-1.071         c-0.364-0.589-0.723-1.179-1.065-1.781c-0.629-1.112-1.197-2.27-1.564-3.498c-0.4-1.344-0.447-2.702-0.471-4.094         c-0.029-1.499-0.129-2.994-0.305-4.485c-0.008-0.067,0.033-0.103,0.083-0.115c-1.025-1.91-2.092-3.797-3.206-5.658         c-0.041-0.068-0.011-0.133,0.045-0.164c-0.104-0.065-0.206-0.129-0.313-0.186c-0.63-0.345-1.351-0.556-1.914-1.015         c-1-0.816-0.77-2.401,0.245-3.072c1.558-1.03,3.171-0.216,4.655,0.537c1.916,0.977,3.68,2.228,5.39,3.525         c1.867,1.415,3.601,3.045,5.573,4.314c2.069,1.332,4.427,1.912,6.801,2.43c-0.881-1.666-2.539-2.629-4.149-3.523         c-1.683-0.939-3.254-1.879-4.508-3.374c-0.691-0.826-1.303-1.715-1.997-2.542c-0.726-0.861-1.562-1.519-2.459-2.19         c-0.718-0.537-1.399-1.145-1.684-2.024c-0.239-0.734-0.132-1.577,0.475-2.102         C261.515,317.205,263.558,317.915,264.803,318.642z"/>
                            <path style="fill:#FDDCA6;" d="M284.6,358.457c5.226,3.072,7.76,8.404,10.079,13.743c1.718,3.954,15.504,30.81,31.107,26.633         c3.654-0.978,4.984-4.944,5.094-8.348c0.141-4.353-1.698-7.158-3.833-10.738c-0.448-0.751-2.23-3.436-2.513-5.076         c2.574,0.998,5.309,2.022,8.067,3.03c14.577,5.328,13.56,26.385-1.497,30.147c-0.176,0.044-0.353,0.087-0.531,0.128         c-22.251,1.697-43.982-43.618-46.503-46.945c-1.909-2.519-4.275-3.864-6.729-5.183         C279.874,356.334,282.328,357.122,284.6,358.457z"/>
                            <path style="fill:#FDDCA6;" d="M268.2,344.541c-0.213,0.249-1.899-0.139-2.106-0.171c-1.263-0.196-2.855-0.339-3.962-1.028         c-1.785-1.11-2.683-3.436-3.492-5.274c-0.353-0.801-1.141-4.21-1.241-5.102c0.731,1.368,1.444,2.747,2.126,4.141         c0.716,1.463,1.366,2.957,2.826,3.818c0.307,0.181,0.628,0.33,0.954,0.469c0.046,0.019,0.091,0.041,0.137,0.06         c0.31,0.127,0.623,0.246,0.937,0.363c0.355,0.132,0.707,0.268,1.053,0.418c0.035,0.015,0.069,0.031,0.103,0.047         c0.323,0.145,0.639,0.304,0.939,0.496c0.008,0.005,0.015,0.011,0.022,0.016C266.517,342.933,268.572,344.107,268.2,344.541z"/>
                            <path style="fill:#FDDCA6;" d="M268.929,339.089c0.464,0.314,2.02,0.775,2.16,1.351c0.327,1.346-2.193,0.253-2.611,0.051         c-1.809-0.875-3.653-1.76-5.203-3.054c-2.056-1.717-3.733-3.837-5.367-5.944c-1.124-1.45-2.169-3.182-3.561-4.451         c-0.02-0.034-0.039-0.068-0.059-0.101c0.295,0.208,0.578,0.441,0.854,0.679c0.276,0.239,0.545,0.483,0.811,0.717         c0.356,0.312,0.721,0.614,1.09,0.911c0.738,0.594,1.493,1.17,2.226,1.769c0.367,0.3,0.728,0.605,1.08,0.923         c0.318,0.287,0.622,0.587,0.917,0.896c0.589,0.618,1.14,1.273,1.682,1.934c0.271,0.331,0.54,0.664,0.81,0.994         c0.611,0.751,1.313,1.272,2.11,1.732c0.266,0.153,0.542,0.3,0.829,0.446c0.29,0.147,0.588,0.297,0.888,0.444         c0.066,0.033,0.131,0.064,0.198,0.096c0.327,0.157,0.657,0.305,0.993,0.433c0.009,0.003,0.017,0.008,0.025,0.011         C268.822,338.986,268.863,339.044,268.929,339.089z"/>
						</g>
					</g>
				</g>
			</g>
		</g>
	</g>
        <g>
		<polygon style="fill:#4FD3FF;" points="169.728,178.071 177.492,178.071 177.492,67.656 63.195,67.656 63.195,178.071     158.945,178.071 181.805,202.656   "/>
            <g>
			<line style="fill:none;stroke:#FFFFFF;stroke-miterlimit:10;" x1="75" y1="82.823" x2="166.333" y2="82.823"/>
                <line style="fill:none;stroke:#FFFFFF;stroke-miterlimit:10;" x1="75" y1="90.823" x2="166.333" y2="90.823"/>
                <line style="fill:none;stroke:#FFFFFF;stroke-miterlimit:10;" x1="75" y1="98.823" x2="166.333" y2="98.823"/>
                <line style="fill:none;stroke:#FFFFFF;stroke-miterlimit:10;" x1="75" y1="106.823" x2="166.333" y2="106.823"/>
                <line style="fill:none;stroke:#FFFFFF;stroke-miterlimit:10;" x1="75" y1="114.823" x2="166.333" y2="114.823"/>
                <line style="fill:none;stroke:#FFFFFF;stroke-miterlimit:10;" x1="75" y1="122.823" x2="166.333" y2="122.823"/>
                <line style="fill:none;stroke:#FFFFFF;stroke-miterlimit:10;" x1="75" y1="130.823" x2="166.333" y2="130.823"/>
                <line style="fill:none;stroke:#FFFFFF;stroke-miterlimit:10;" x1="75" y1="138.823" x2="166.333" y2="138.823"/>
                <line style="fill:none;stroke:#FFFFFF;stroke-miterlimit:10;" x1="75" y1="146.823" x2="166.333" y2="146.823"/>
                <line style="fill:none;stroke:#FFFFFF;stroke-miterlimit:10;" x1="75" y1="154.823" x2="166.333" y2="154.823"/>
		</g>
	</g>
        <g>
		<polygon style="fill:#FFFFFF;" points="349.979,199.497 345.455,199.497 345.455,135.156 412.058,135.156 412.058,199.497     356.263,199.497 342.942,213.823   "/>
            <g>
			<line style="fill:none;stroke:#3BBEEF;stroke-miterlimit:10;" x1="405.179" y1="143.994" x2="351.958" y2="143.994"/>
                <line style="fill:none;stroke:#3BBEEF;stroke-miterlimit:10;" x1="405.179" y1="148.656" x2="351.958" y2="148.656"/>
                <line style="fill:none;stroke:#3BBEEF;stroke-miterlimit:10;" x1="405.179" y1="153.317" x2="351.958" y2="153.317"/>
                <line style="fill:none;stroke:#3BBEEF;stroke-miterlimit:10;" x1="405.179" y1="157.979" x2="351.958" y2="157.979"/>
                <line style="fill:none;stroke:#3BBEEF;stroke-miterlimit:10;" x1="405.179" y1="162.641" x2="351.958" y2="162.641"/>
                <line style="fill:none;stroke:#3BBEEF;stroke-miterlimit:10;" x1="405.179" y1="167.303" x2="351.958" y2="167.303"/>
                <line style="fill:none;stroke:#3BBEEF;stroke-miterlimit:10;" x1="405.179" y1="171.964" x2="351.958" y2="171.964"/>
                <line style="fill:none;stroke:#3BBEEF;stroke-miterlimit:10;" x1="405.179" y1="176.626" x2="351.958" y2="176.626"/>
                <line style="fill:none;stroke:#3BBEEF;stroke-miterlimit:10;" x1="405.179" y1="181.288" x2="351.958" y2="181.288"/>
                <line style="fill:none;stroke:#3BBEEF;stroke-miterlimit:10;" x1="405.179" y1="185.949" x2="351.958" y2="185.949"/>
		</g>
	</g>
</g>
</svg>